<?xml version="1.0" standalone="no"?>
<!DOCTYPE svg PUBLIC "-//W3C//DTD SVG 20010904//EN"
 "http://www.w3.org/TR/2001/REC-SVG-20010904/DTD/svg10.dtd">
<svg version="1.0" xmlns="http://www.w3.org/2000/svg"
 width="1890.000000pt" height="742.000000pt" viewBox="0 0 1890.000000 742.000000"
 preserveAspectRatio="xMidYMid meet">

<g transform="translate(0.000000,742.000000) scale(0.100000,-0.100000)"
fill="#000000" stroke="none">
<path d="M0 4775 l0 -2645 370 0 370 0 0 -248 c0 -180 3 -251 12 -260 17 -17
3329 -17 3346 0 9 9 12 80 12 260 l0 248 1880 0 1880 0 0 25 0 25 120 0 120 0
0 30 c0 20 5 30 15 30 10 0 15 -10 15 -30 l0 -30 70 0 70 0 0 30 0 30 65 0 65
0 0 30 c0 25 4 30 25 30 21 0 25 -5 25 -30 l0 -30 90 0 90 0 0 -30 c0 -23 4
-30 20 -30 16 0 20 7 20 30 0 28 3 30 35 30 30 0 36 -4 44 -32 l9 -33 1 34 c1
33 1 33 46 29 25 -2 45 1 45 5 0 5 15 7 33 5 28 -3 32 0 35 24 4 38 22 36 22
-2 0 -25 4 -30 25 -30 21 0 25 5 25 30 0 23 4 30 20 30 16 0 20 -7 20 -30 0
-25 4 -30 25 -30 21 0 25 5 25 30 0 25 4 30 25 30 21 0 25 -5 25 -30 0 -28 3
-30 35 -30 32 0 35 -2 35 -30 0 -16 5 -30 10 -30 6 0 10 14 10 31 0 28 3 31
25 26 22 -4 28 1 40 29 8 19 34 55 58 81 24 27 51 62 60 78 8 17 24 41 36 54
11 13 23 40 27 60 10 63 72 210 100 239 7 6 15 20 19 31 9 29 77 78 167 120
93 44 140 94 181 192 20 47 42 91 83 161 22 37 60 70 124 108 47 28 77 56 109
99 56 79 94 112 183 158 71 37 75 38 183 38 105 0 113 -2 174 -32 35 -18 71
-33 79 -33 8 0 38 16 65 37 114 81 257 122 357 102 70 -13 126 -40 174 -81 11
-10 25 -18 32 -18 21 0 24 -29 4 -40 -11 -6 -20 -18 -21 -28 0 -9 -11 -35 -24
-57 -44 -74 -45 -81 -34 -163 6 -42 15 -84 19 -94 5 -9 12 -40 15 -70 14 -117
58 -230 118 -302 l30 -36 48 51 c72 74 190 118 232 87 17 -13 17 -16 -4 -63
-21 -48 -21 -50 -5 -119 15 -61 25 -115 40 -213 2 -13 9 -29 15 -37 7 -8 10
-24 6 -35 -11 -35 13 -136 56 -237 36 -84 42 -109 43 -169 0 -95 -22 -205 -41
-205 -12 0 -13 -8 -8 -39 6 -34 4 -40 -14 -46 -15 -4 -21 -15 -21 -35 0 -15
-11 -48 -25 -71 -14 -24 -25 -54 -25 -66 0 -12 -3 -24 -8 -27 -4 -2 -7 -62 -6
-133 1 -70 -2 -132 -6 -138 -4 -5 -11 -26 -15 -45 -4 -19 -13 -46 -21 -60 -7
-14 -25 -51 -38 -83 -16 -34 -32 -57 -41 -57 -17 0 -62 29 -110 71 -67 58
-194 115 -335 150 -92 23 -133 28 -280 34 -97 4 -431 22 -564 30 -78 5 -90 -8
-101 -107 -13 -111 -14 -177 -4 -209 6 -19 14 -50 18 -71 7 -32 5 -37 -16 -47
-25 -12 -25 -12 -23 -87 1 -47 -2 -54 -28 -73 -17 -12 -45 -21 -65 -21 -51 0
-139 -21 -159 -38 -9 -7 -24 -29 -32 -47 -27 -57 -132 -209 -175 -252 -40 -41
-51 -63 -31 -63 6 0 70 59 143 131 72 73 151 146 173 163 23 17 62 48 87 69
28 24 75 48 128 66 46 16 109 38 139 49 180 67 686 34 865 -56 186 -93 271
-182 315 -331 25 -84 70 -142 94 -122 25 21 40 98 27 140 -24 82 -11 296 28
465 13 53 9 65 -12 48 -48 -41 -27 78 31 171 26 41 36 45 51 20 9 -16 10 -16
11 -2 0 9 7 30 15 45 8 16 15 37 15 46 0 9 4 20 10 23 5 3 10 21 11 38 0 18 4
41 8 51 4 11 4 40 -1 65 -5 25 -11 68 -13 94 -2 26 -7 52 -9 56 -3 4 9 30 26
57 17 27 50 99 73 159 90 234 237 586 352 840 59 129 109 209 128 201 8 -3 17
-1 21 5 4 7 10 6 18 0 10 -8 24 2 55 39 38 44 45 49 74 44 18 -3 49 -13 71
-22 l38 -16 25 29 c44 54 76 85 88 85 17 0 45 -33 45 -53 0 -9 5 -17 10 -17
17 0 11 -28 -31 -156 -23 -68 -39 -131 -35 -139 7 -18 27 -27 133 -55 110 -30
113 -28 182 141 l55 132 -34 29 -34 28 41 0 c44 0 57 12 93 83 21 41 24 17 6
-38 -20 -56 -20 -69 -2 -84 16 -13 296 -89 361 -98 49 -6 52 -3 92 102 17 44
50 130 73 190 23 61 46 119 51 130 5 11 25 62 44 114 43 113 39 124 -52 158
-63 25 -78 50 -47 84 10 11 13 26 8 43 -6 25 -5 26 37 21 24 -2 78 -7 119 -9
105 -7 174 -33 266 -100 118 -86 244 -166 261 -166 22 0 203 -83 203 -94 0
-13 -94 5 -295 58 -77 21 -171 46 -210 56 -38 10 -92 25 -120 34 -67 21 -92
20 -105 -4 -6 -11 -39 -102 -74 -203 -35 -100 -66 -189 -70 -197 -16 -37 45
-65 239 -110 22 -5 62 -14 88 -20 64 -16 92 -7 106 30 5 17 16 33 23 35 7 3
85 -13 173 -36 187 -49 266 -64 287 -57 8 4 33 63 58 140 49 154 65 188 85
188 18 0 19 -31 4 -80 -6 -19 -14 -48 -19 -65 -4 -16 -31 -104 -59 -195 -89
-283 -142 -454 -152 -485 -5 -16 -16 -52 -24 -78 -20 -62 -19 -84 3 -96 34
-18 318 -94 355 -95 44 -1 44 -2 91 159 34 116 64 216 86 285 10 30 29 96 44
145 14 50 31 104 36 121 6 17 10 37 10 46 0 26 35 48 76 48 33 0 44 -5 62 -30
24 -32 78 -63 130 -75 29 -6 32 -10 32 -45 0 -20 6 -42 13 -48 21 -18 197 -64
221 -58 16 4 29 20 40 51 20 50 44 68 78 60 16 -4 51 9 109 38 66 34 101 45
154 50 38 4 73 11 79 17 5 5 31 10 56 10 65 0 218 33 266 58 23 12 80 26 130
32 49 6 125 17 169 25 44 8 110 16 147 18 57 4 84 13 183 63 l117 58 246 0
c370 1 541 -27 737 -119 55 -26 143 -67 195 -92 182 -86 243 -118 271 -145
l29 -26 0 308 0 308 -27 4 c-16 3 -64 4 -108 3 -50 -2 -85 1 -94 8 -7 7 -41
17 -74 22 -43 7 -63 16 -71 30 -23 41 -52 60 -84 56 -8 -1 -22 5 -33 15 -21
19 -49 13 -49 -11 0 -8 -9 -15 -20 -15 -11 0 -20 5 -20 10 0 6 -11 10 -25 10
-14 0 -25 -4 -25 -10 0 -5 -9 -10 -20 -10 -11 0 -20 5 -20 10 0 6 -11 10 -25
10 -14 0 -25 -4 -25 -10 0 -21 -31 -9 -40 15 -12 30 -39 43 -50 24 -7 -10 -17
-6 -43 21 -19 19 -37 42 -40 50 -4 12 -6 11 -6 -2 -1 -24 -17 -23 -24 2 -3 11
-17 24 -31 30 -14 5 -26 17 -26 27 0 15 -2 15 -9 4 -13 -21 -33 -2 -50 46 -7
21 -21 46 -29 56 -18 20 -92 57 -114 57 -7 0 -18 10 -23 22 -6 14 -22 25 -39
28 -22 4 -32 12 -37 33 -4 16 -12 34 -17 40 -6 7 -13 30 -18 51 -8 45 -30 92
-41 88 -14 -4 -63 49 -63 68 0 19 -19 30 -51 30 -15 0 -19 7 -19 33 0 18 -9
49 -19 68 -20 38 -18 79 4 79 7 0 16 19 19 44 7 47 46 98 46 60 0 -12 7 -6 20
19 11 20 20 43 20 50 0 8 11 24 25 37 l25 23 0 -21 0 -22 20 20 c11 11 20 27
20 35 0 15 19 19 73 15 25 -1 27 2 27 33 0 32 3 35 38 41 20 4 129 10 242 14
313 9 386 7 394 -14 3 -9 17 -13 34 -12 16 1 43 -4 60 -11 23 -10 36 -10 45
-3 8 7 83 13 188 16 96 2 182 7 192 11 16 7 17 81 17 1361 l0 1354 -9450 0
-9450 0 0 -2645z m560 2456 c0 -44 10 -55 40 -46 16 5 20 15 20 46 0 37 1 39
21 29 27 -15 52 -76 44 -108 -3 -14 -16 -39 -28 -56 -12 -17 -27 -40 -33 -51
-5 -11 -18 -19 -27 -19 -9 1 -15 -2 -12 -6 3 -5 1 -11 -5 -15 -6 -4 -11 7 -11
27 -2 32 -2 32 -9 -7 l-7 -40 -2 36 c0 22 -9 43 -22 55 -28 25 -49 67 -49 98
0 25 53 96 71 96 5 0 9 -18 9 -39z m-102 -53 c2 -20 -5 -32 -33 -54 -20 -15
-47 -46 -61 -70 -27 -46 -47 -104 -35 -104 4 0 12 20 19 45 12 45 86 135 111
135 7 0 -4 -15 -23 -34 -36 -33 -75 -106 -76 -138 0 -10 -6 -18 -12 -18 -8 0
-9 -3 -3 -8 6 -4 16 -29 23 -57 14 -54 49 -106 88 -131 35 -24 33 -70 -3 -77
-40 -7 -76 20 -68 51 7 30 -19 62 -51 62 -26 0 -62 54 -44 65 13 8 13 52 0 60
-5 3 -10 17 -10 30 0 13 5 27 10 30 13 8 13 48 -1 62 -17 17 17 76 41 70 27
-7 67 37 51 57 -9 11 -6 18 15 35 35 27 58 23 62 -11z m327 14 c18 -14 21 -22
13 -36 -13 -23 27 -69 53 -61 23 8 47 -50 31 -75 -8 -13 -7 -24 4 -45 16 -31
19 -65 5 -65 -13 0 -20 -47 -8 -59 17 -17 -12 -71 -38 -71 -31 0 -57 -32 -50
-61 7 -31 -30 -59 -68 -52 -40 8 -36 46 8 84 44 39 72 84 81 134 4 22 12 43
18 47 8 5 7 8 -1 8 -7 0 -13 8 -13 18 0 10 -11 41 -25 68 -28 55 -29 58 -15
49 6 -3 19 -23 30 -43 10 -20 19 -32 20 -26 0 20 -62 104 -91 121 -22 13 -29
25 -29 48 0 26 4 31 26 33 14 1 36 -6 49 -16z m-35 -87 c14 -15 18 -25 11 -25
-11 0 -11 -3 -1 -15 11 -13 10 -18 -6 -30 -10 -8 -24 -15 -31 -15 -7 0 -9 -9
-5 -22 5 -20 0 -18 -29 12 -19 19 -33 39 -31 43 3 5 9 4 15 -2 17 -17 31 -13
17 4 -16 19 -5 34 12 17 7 -7 16 -12 21 -12 5 0 -1 8 -13 18 -14 11 -19 23
-15 35 10 24 27 21 55 -8z m-292 -35 c-43 -36 -61 -26 -19 12 18 16 37 26 42
22 6 -3 -4 -18 -23 -34z m19 -29 c-52 -62 -59 -142 -18 -200 28 -39 27 -50 -2
-22 -14 12 -30 19 -40 16 -10 -4 -19 1 -26 14 -15 28 -14 51 4 51 10 0 15 10
15 28 0 15 3 38 7 52 6 23 5 24 -11 11 -22 -19 -32 -7 -18 24 7 16 17 23 27
19 8 -3 28 5 46 20 40 34 49 26 16 -13z m788 -79 l41 -103 41 103 c36 91 43
103 67 106 l26 3 0 -135 c0 -128 -1 -136 -20 -136 -17 0 -19 8 -22 88 l-3 87
-35 -88 c-47 -117 -61 -116 -110 8 l-35 89 -3 -92 c-2 -84 -5 -92 -22 -92 -19
0 -20 8 -20 136 l0 135 27 -3 c24 -3 31 -14 68 -106z m401 -27 c51 -133 52
-135 29 -135 -18 0 -26 8 -35 35 -11 34 -13 35 -65 35 -52 0 -54 -1 -65 -35
-9 -27 -17 -35 -35 -35 -23 0 -22 2 28 135 69 181 74 181 143 0z m183 43 l61
-93 0 93 c0 91 0 92 25 92 l25 0 0 -135 c0 -134 0 -135 -23 -135 -18 0 -36 20
-83 93 l-59 92 -3 -92 c-3 -91 -3 -93 -27 -93 l-25 0 0 135 0 135 24 0 c18 0
36 -19 85 -92z m203 -15 c3 -104 4 -108 30 -122 21 -12 31 -13 52 -3 26 11 26
13 26 122 l0 110 25 0 25 0 0 -106 c0 -103 -1 -106 -29 -135 -24 -23 -38 -29
-73 -29 -84 0 -108 42 -108 188 0 81 0 82 25 82 24 0 24 -1 27 -107z m398 92
c0 -11 -12 -15 -45 -15 l-45 0 0 -120 c0 -113 -1 -120 -20 -120 -19 0 -20 7
-20 120 l0 120 -45 0 c-33 0 -45 4 -45 15 0 12 19 15 110 15 91 0 110 -3 110
-15z m181 -119 c27 -71 49 -131 49 -132 0 -2 -9 -4 -20 -4 -13 0 -25 12 -34
35 -14 34 -17 35 -66 35 -49 0 -52 -1 -66 -35 -9 -23 -21 -35 -34 -35 -11 0
-20 2 -20 5 0 2 19 55 43 117 24 62 47 121 50 131 4 12 15 17 28 15 17 -2 30
-29 70 -132z m227 118 c75 -52 66 -214 -14 -244 -14 -6 -50 -10 -80 -10 l-54
0 0 135 0 135 63 0 c40 0 70 -5 85 -16z m257 -9 c14 -13 25 -31 25 -39 0 -29
-22 -28 -50 3 -31 33 -56 39 -84 18 -32 -24 -15 -49 49 -74 67 -26 85 -44 85
-84 0 -58 -92 -89 -160 -54 -32 16 -48 51 -31 68 7 7 19 1 40 -21 32 -35 70
-42 95 -16 30 30 17 45 -64 77 -63 25 -83 54 -69 97 12 34 41 48 97 49 33 1
49 -5 67 -24z m-2620 -25 c-16 -16 -31 -28 -33 -25 -7 7 39 55 52 55 5 0 -3
-13 -19 -30z m303 -37 c9 -39 8 -43 -9 -43 -13 0 -20 -10 -25 -35 -9 -50 -26
-56 -18 -6 4 22 1 54 -5 73 -11 30 -10 35 10 51 27 22 35 15 47 -40z m-174
-57 c-6 -67 -10 -80 -31 -93 -21 -14 -26 -14 -34 -2 -7 11 -9 11 -9 -3 0 -17
-37 -44 -46 -35 -3 3 -2 33 2 67 6 53 9 61 25 57 15 -4 19 0 19 21 0 28 58 88
72 74 5 -5 6 -44 2 -86z m16566 84 c0 -5 -7 -10 -15 -10 -8 0 -15 5 -15 10 0
6 7 10 15 10 8 0 15 -4 15 -10z m820 -65 l0 -75 -39 0 c-45 0 -71 20 -71 55 0
29 41 60 70 52 16 -4 20 0 20 19 0 13 5 24 10 24 6 0 10 -32 10 -75z m-1200 5
l0 -60 34 0 c19 0 38 -4 41 -10 4 -6 -13 -10 -44 -10 l-51 0 0 70 c0 40 4 70
10 70 6 0 10 -27 10 -60z m960 50 c17 -11 10 -13 -38 -10 -41 2 -62 -15 -62
-50 0 -38 22 -54 65 -47 36 6 57 -6 29 -17 -29 -11 -77 -6 -96 11 -23 20 -24
80 -1 105 18 20 78 24 103 8z m520 -10 c0 -5 7 -10 15 -10 8 0 15 -4 15 -10 0
-5 -7 -10 -15 -10 -10 0 -15 -11 -15 -35 0 -24 5 -35 15 -35 8 0 15 -4 15 -10
0 -5 -11 -10 -25 -10 -18 0 -26 6 -29 23 -11 52 -14 82 -9 94 6 15 33 18 33 3z
m-1306 -23 c21 -16 24 -60 6 -82 -16 -20 -64 -19 -84 1 -22 21 -20 50 4 74 23
23 49 26 74 7z m146 -52 c0 -34 -5 -66 -12 -73 -14 -14 -67 -16 -88 -2 -16 10
-14 11 39 13 19 1 36 8 39 15 3 9 -3 11 -21 7 -40 -10 -67 10 -67 50 0 41 19
54 73 52 l37 -1 0 -61z m60 10 c0 -42 -3 -55 -15 -55 -11 0 -15 12 -15 48 0
27 3 52 7 55 16 17 23 3 23 -48z m118 43 c14 -12 16 -98 2 -98 -5 0 -10 18
-10 40 0 27 -5 43 -15 46 -24 10 -45 -15 -45 -52 0 -19 -4 -34 -10 -34 -5 0
-10 24 -10 53 l0 53 38 1 c20 1 43 -3 50 -9z m560 0 c7 -7 12 -32 12 -56 l0
-43 -42 3 c-38 3 -43 6 -43 28 0 21 5 26 33 28 43 4 37 28 -7 26 -31 -2 -42
10 -18 19 22 10 53 7 65 -5z m250 0 c7 -7 12 -32 12 -56 l0 -43 -42 3 c-38 3
-43 6 -43 28 0 21 5 26 33 28 43 4 37 28 -7 26 -31 -2 -42 10 -18 19 22 10 53
7 65 -5z m112 2 c16 -10 8 -13 -29 -10 -31 2 -23 -22 10 -30 17 -4 24 -13 24
-30 0 -21 -5 -26 -34 -28 -18 -2 -38 1 -44 7 -8 8 0 11 26 11 44 0 49 16 8 25
-35 8 -46 29 -25 50 18 17 42 19 64 5z m180 0 c0 -4 -9 -10 -20 -13 -16 -4
-20 -14 -20 -46 0 -30 -4 -41 -15 -41 -11 0 -15 12 -15 48 0 27 2 51 5 54 9 8
65 7 65 -2z m94 -3 c21 -16 24 -60 6 -82 -16 -20 -64 -19 -84 1 -22 21 -20 50
4 74 23 23 49 26 74 7z m-18106 -24 c-4 -39 -28 -42 -28 -4 0 21 5 31 16 31
11 0 14 -8 12 -27z m408 -29 c-3 -9 -6 -20 -6 -25 0 -5 -4 -9 -10 -9 -5 0 -10
11 -10 25 0 16 6 25 16 25 11 0 14 -5 10 -16z m-130 -9 c4 -8 1 -22 -6 -30 -7
-9 -8 -15 -2 -15 12 0 11 -144 0 -156 -4 -4 -3 -13 4 -21 9 -11 8 -18 -5 -31
-16 -15 -17 -14 -19 18 0 19 -1 43 0 53 1 9 -3 17 -8 17 -17 0 -23 -30 -12
-56 8 -16 8 -32 2 -49 -8 -20 -16 -25 -44 -25 -36 0 -56 16 -59 49 -1 14 -6
20 -15 16 -9 -3 -12 1 -10 12 2 14 102 81 143 96 6 3 7 7 4 11 -3 3 -38 -12
-78 -33 -68 -38 -72 -39 -69 -18 2 15 24 34 74 62 l71 40 -5 37 c-4 31 -1 38
12 38 9 0 19 -7 22 -15z m114 -47 c0 -25 -40 -79 -53 -72 -6 4 -9 4 -5 -1 9
-9 -9 -35 -23 -35 -16 0 -9 27 12 46 12 10 27 31 35 46 15 29 34 37 34 16z
m-50 -16 c0 -5 -9 -17 -20 -27 -23 -21 -26 -14 -8 15 13 20 28 27 28 12z
m-296 -52 c-14 -14 -39 14 -29 31 5 8 12 6 23 -5 11 -11 13 -19 6 -26z m36
-26 c0 -16 -16 -19 -25 -4 -8 13 4 32 16 25 5 -4 9 -13 9 -21z m11347 -1109
c14 -33 37 -83 50 -112 24 -50 24 -52 7 -88 -20 -43 -235 -265 -256 -265 -25
0 -160 101 -154 116 3 8 -1 14 -10 14 -11 0 -13 7 -8 28 6 25 5 26 -8 8 -8
-10 -20 -16 -26 -12 -17 10 -15 26 3 26 8 0 15 5 15 10 0 6 11 21 25 34 14 13
25 26 25 29 0 3 10 17 23 30 12 13 34 39 50 58 20 25 27 29 27 15 0 -10 6 -16
13 -13 13 4 14 31 3 57 -5 12 1 15 31 16 54 0 73 10 73 38 0 18 6 25 23 28 15
2 23 11 25 30 5 45 39 21 69 -47z m3418 -235 c216 -54 409 -161 539 -300 28
-30 66 -71 85 -90 49 -50 154 -189 179 -236 11 -21 33 -73 48 -114 15 -41 38
-99 51 -129 12 -29 23 -60 23 -69 0 -8 9 -29 19 -46 21 -34 41 -127 41 -192 0
-31 -5 -47 -19 -56 -11 -8 -21 -26 -23 -40 -2 -14 -8 -32 -14 -39 -15 -21 -9
-88 9 -110 9 -10 13 -19 8 -19 -4 0 -13 -18 -20 -39 -9 -31 -19 -42 -49 -54
-20 -8 -49 -26 -62 -40 -22 -21 -35 -25 -86 -26 -108 0 -227 40 -257 87 -4 6
-12 12 -17 12 -16 0 -122 85 -173 138 -42 45 -48 56 -53 110 -6 51 -4 61 12
73 11 8 26 27 34 42 8 16 30 43 50 60 67 58 81 86 79 152 -2 51 -7 68 -36 109
-41 58 -66 123 -59 152 4 13 0 27 -9 34 -20 17 -9 30 26 30 41 0 40 33 -3 54
-42 21 -48 20 -48 -9 0 -33 -11 -32 -38 4 -11 16 -41 38 -66 50 -24 12 -47 28
-50 36 -5 14 -163 95 -184 95 -6 0 -26 9 -44 19 -18 11 -51 23 -73 27 -22 4
-53 15 -70 26 -16 10 -36 18 -44 18 -18 0 -109 46 -127 65 -9 8 -23 15 -32 15
-18 0 -92 56 -92 69 0 10 79 91 88 91 4 0 21 7 37 16 64 34 118 43 245 39 69
-2 148 -9 175 -15z m-3027 -286 c20 -9 48 -18 61 -20 13 -1 31 -9 40 -16 32
-27 70 -40 100 -36 25 4 31 1 31 -13 0 -32 -65 -77 -96 -65 -7 3 -30 -11 -50
-30 -21 -19 -42 -34 -47 -34 -4 0 -16 -7 -25 -16 -15 -15 -16 -15 -22 2 -6 15
-7 16 -13 2 -4 -11 -17 -16 -39 -15 -30 2 -33 5 -36 35 -2 24 1 32 12 32 9 0
16 7 16 16 0 12 -6 15 -22 10 -25 -6 -80 14 -75 27 1 5 5 7 8 5 8 -5 33 24 46
53 12 29 53 76 66 78 4 1 24 -6 45 -15z m2777 -333 c3 -5 18 -12 33 -16 19 -4
36 -19 53 -47 13 -22 35 -51 47 -64 13 -13 37 -44 53 -69 25 -39 29 -55 29
-117 0 -58 -4 -78 -22 -105 -13 -18 -28 -33 -34 -33 -18 0 -40 -30 -27 -38 17
-11 -2 -45 -27 -49 -32 -5 -39 -13 -12 -13 12 0 22 -5 22 -10 0 -16 -43 -29
-63 -18 -9 5 -21 7 -26 4 -9 -6 -81 14 -98 27 -7 5 -13 18 -13 28 0 11 -7 19
-15 19 -8 0 -15 -4 -15 -10 0 -15 -14 -12 -38 8 -12 9 -36 28 -53 42 -76 60
-91 80 -85 110 4 21 1 32 -11 38 -21 12 -5 63 25 77 12 5 22 13 22 17 0 5 8
16 18 26 60 64 90 102 101 131 19 44 118 90 136 62z m-2063 -58 c10 -9 18 -24
18 -34 0 -10 5 -21 10 -24 6 -4 20 -26 31 -50 l21 -44 -28 -36 c-15 -20 -33
-35 -39 -33 -17 4 -155 170 -155 186 0 14 73 50 104 51 11 1 28 -6 38 -16z
m464 -543 c55 -26 104 -81 104 -114 0 -12 -11 -40 -25 -64 -17 -30 -23 -52
-19 -71 3 -16 1 -38 -6 -50 -20 -38 -183 -195 -232 -224 -43 -25 -52 -27 -88
-17 -22 6 -45 8 -51 4 -13 -7 -3 -55 14 -67 7 -5 -6 -7 -30 -4 -36 4 -44 2
-58 -19 -19 -30 -60 -31 -95 -4 -33 26 -60 26 -60 0 0 -24 -15 -24 -160 -10
-102 10 -228 -2 -265 -27 -11 -7 -34 -13 -52 -13 -21 0 -40 -8 -50 -20 -21
-24 -49 -26 -57 -4 -11 28 -7 36 14 31 13 -3 24 1 30 14 6 10 15 19 20 19 12
0 55 44 63 64 3 8 17 18 29 21 13 3 32 19 43 35 11 16 21 27 23 26 1 -2 14 6
27 18 27 24 106 70 148 87 15 6 27 15 27 19 0 4 10 10 23 14 12 3 43 25 68 48
88 81 205 167 284 208 11 6 37 37 58 68 54 83 68 97 107 108 32 9 39 7 76 -21
22 -17 63 -42 90 -55z m-1606 -389 c5 -11 10 -31 10 -46 0 -35 47 -135 106
-225 82 -126 81 -114 25 -243 -27 -61 -53 -112 -58 -114 -4 -1 -26 33 -47 77
-28 55 -58 97 -103 142 -36 35 -79 77 -95 93 -17 17 -42 48 -56 69 -24 39 -24
40 -7 73 10 18 24 33 32 33 7 0 13 3 13 8 0 15 138 152 153 152 9 0 21 -9 27
-19z m-6977 -257 c21 -12 32 -13 35 -5 2 6 17 11 34 11 26 0 29 -3 22 -22 -15
-52 -48 -67 -95 -43 -22 12 -34 14 -42 6 -6 -6 -21 -11 -34 -11 -29 0 -31 32
-3 60 24 24 41 25 83 4z m8057 -24 c0 -5 -4 -10 -10 -10 -5 0 -10 5 -10 10 0
6 5 10 10 10 6 0 10 -4 10 -10z m-11881 -72 c19 -7 22 -13 16 -36 -10 -40 -18
-45 -65 -32 -49 13 -90 6 -90 -15 0 -13 18 -20 102 -40 91 -22 101 -138 15
-178 -55 -26 -175 -18 -211 14 -7 6 6 59 20 77 1 2 16 -4 34 -13 39 -20 115
-17 115 5 0 9 -22 20 -65 31 -105 28 -140 92 -85 158 39 46 134 59 214 29z
m3602 -4 c48 -24 52 -38 19 -69 -28 -27 -30 -27 -54 -11 -80 52 -164 -21 -125
-108 21 -45 99 -57 130 -20 10 12 17 10 46 -12 19 -14 36 -24 38 -23 2 2 28
60 58 129 l54 125 49 3 49 3 71 -161 72 -160 -53 0 c-49 0 -53 2 -65 30 -12
29 -15 30 -74 30 -59 0 -62 -1 -73 -30 -10 -28 -15 -30 -62 -30 -50 0 -50 0
-41 26 l10 26 -30 -25 c-16 -14 -43 -28 -59 -32 -29 -6 -29 -7 -10 -26 24 -24
24 -34 -1 -59 -21 -21 -94 -28 -104 -11 -11 17 6 43 25 38 11 -3 22 -1 25 4 3
5 -2 9 -10 9 -9 0 -16 9 -16 20 0 13 -14 25 -43 38 -65 29 -92 73 -92 149 0
66 16 98 67 136 48 35 140 41 199 11z m-3431 -92 c0 -95 2 -111 20 -127 26
-23 68 -13 80 21 6 14 10 68 10 120 l0 94 44 0 45 0 7 -56 c9 -78 -1 -168 -23
-206 -50 -88 -211 -91 -263 -6 -17 28 -20 50 -20 151 l0 117 50 0 50 0 0 -108z
m512 -47 c37 -82 68 -153 68 -157 0 -5 -23 -8 -51 -8 -47 0 -51 2 -60 30 -11
29 -13 30 -74 30 -61 0 -63 -1 -74 -30 -9 -28 -13 -30 -60 -30 -28 0 -51 2
-51 4 0 4 130 297 137 309 3 4 26 7 51 5 l47 -3 67 -150z m353 68 c27 -46 52
-83 55 -83 3 0 27 39 55 85 l49 85 43 0 43 0 0 -160 0 -160 -45 0 c-50 0 -52
4 -57 90 l-3 45 -30 -52 c-24 -43 -35 -53 -56 -53 -21 0 -33 11 -62 58 l-36
57 -1 -72 0 -73 -45 0 -45 0 0 161 0 160 42 -3 c42 -3 44 -5 93 -85z m538 -15
c25 -57 57 -129 71 -160 l26 -58 -53 0 c-49 0 -53 2 -64 30 -11 29 -14 30 -73
30 -59 0 -61 -1 -71 -30 -10 -28 -14 -30 -64 -30 l-53 0 70 160 71 160 47 0
47 0 46 -102z m242 41 c28 -34 58 -71 67 -82 16 -20 16 -17 11 61 l-6 82 52 0
51 0 0 -160 0 -160 -43 0 c-41 0 -44 3 -102 75 l-60 75 -3 -75 -3 -75 -49 0
-50 0 0 160 0 160 43 0 c39 0 45 -4 92 -61z m326 49 c1 -7 4 -60 8 -118 6
-103 7 -105 33 -114 22 -8 32 -6 48 9 18 16 20 30 20 127 l0 108 50 0 50 0 0
-113 c0 -90 -4 -119 -18 -146 -48 -90 -202 -95 -266 -8 -17 22 -21 47 -24 147
l-4 120 51 0 c33 0 51 -4 52 -12z m512 -20 c6 -44 3 -48 -49 -48 l-44 0 0
-120 0 -120 -50 0 -50 0 0 120 0 120 -50 0 -50 0 0 40 0 40 144 0 144 0 5 -32z
m287 -8 l0 -40 -80 0 c-73 0 -80 -2 -80 -20 0 -18 7 -20 70 -20 l70 0 0 -40 0
-40 -70 0 c-68 0 -70 -1 -70 -25 0 -25 1 -25 80 -25 57 0 80 -4 80 -12 0 -7 3
-23 6 -35 l6 -23 -136 0 -136 0 0 160 0 160 130 0 130 0 0 -40z m175 -21 c28
-34 58 -71 67 -82 16 -20 16 -17 11 61 l-6 82 52 0 51 0 0 -160 0 -160 -43 0
c-41 0 -44 3 -102 75 l-60 75 -3 -75 -3 -75 -49 0 -50 0 0 160 0 160 43 0 c39
0 45 -4 92 -61z m1166 38 c58 -39 81 -83 77 -148 -5 -68 -35 -114 -92 -140
-131 -59 -275 30 -263 163 5 56 40 107 89 131 51 25 147 22 189 -6z m6872
-224 c-7 -3 -13 -9 -13 -14 0 -14 -42 -69 -52 -69 -11 0 19 53 46 81 10 11 21
17 25 13 3 -4 0 -9 -6 -11z m2091 -12 c3 -5 -1 -14 -9 -21 -13 -10 -15 -9 -15
9 0 21 14 28 24 12z m649 -93 c8 -12 8 -23 0 -40 -6 -13 -19 -49 -28 -81 -10
-32 -22 -60 -29 -63 -6 -2 -58 10 -116 27 -58 17 -123 35 -145 40 -22 6 -44
14 -49 20 -6 5 -20 9 -33 9 -13 0 -23 5 -23 11 0 8 14 9 43 5 59 -9 105 -14
85 -9 -51 13 8 47 99 58 18 2 41 6 52 10 13 4 23 0 29 -11 8 -15 12 -14 27 10
l18 28 13 -24 13 -23 1 28 c0 32 25 35 43 5z m262 -73 c17 -13 47 -28 67 -34
20 -7 55 -29 78 -49 55 -50 55 -79 -4 -272 -27 -85 -52 -168 -56 -185 -4 -16
-19 -66 -33 -110 -14 -44 -33 -107 -42 -140 -9 -33 -20 -67 -25 -75 -12 -24
-67 -17 -230 30 -157 45 -165 51 -141 98 11 21 56 161 82 257 11 39 23 79 28
90 5 11 18 52 30 90 12 39 26 79 31 90 4 11 22 65 40 120 37 114 47 138 60
130 5 -3 11 -1 14 4 7 11 55 -11 101 -44z m-11822 9 c21 -12 32 -13 35 -5 2 6
17 11 34 11 26 0 29 -3 23 -22 -8 -28 -41 -58 -64 -58 -9 0 -27 7 -40 16 -17
12 -26 13 -34 5 -6 -6 -21 -11 -34 -11 -29 0 -31 32 -3 60 24 24 41 25 83 4z
m-2335 -95 c25 -10 26 -14 11 -58 -9 -24 -16 -31 -28 -26 -72 30 -121 30 -121
0 0 -13 18 -20 102 -40 93 -23 104 -131 18 -176 -53 -29 -177 -22 -214 11 -8
8 10 80 20 80 3 0 19 -7 35 -16 34 -17 110 -15 116 3 3 7 -23 20 -66 33 -98
29 -131 75 -100 143 26 57 135 79 227 46z m2105 -1 c32 -12 31 -9 13 -53 l-15
-34 -40 16 c-47 18 -94 11 -89 -14 2 -11 21 -21 56 -29 78 -17 106 -41 110
-94 2 -30 -2 -48 -15 -62 -39 -44 -125 -60 -203 -38 -60 17 -64 22 -46 63 l15
36 36 -15 c45 -19 110 -15 110 6 0 9 -22 20 -63 31 -80 21 -102 41 -102 91 0
22 5 48 10 58 28 52 138 71 223 38z m8894 -4 c-9 -9 -28 6 -21 18 4 6 10 6 17
-1 6 -6 8 -13 4 -17z m-10667 -24 l0 -40 -80 0 c-73 0 -80 -2 -80 -20 0 -18 7
-20 70 -20 l70 0 0 -40 0 -40 -70 0 c-68 0 -70 -1 -70 -25 0 -25 1 -25 80 -25
57 0 80 -4 80 -12 0 -7 3 -23 6 -35 l6 -23 -136 0 -136 0 0 160 0 160 130 0
130 0 0 -40z m174 -40 c27 -44 52 -82 56 -85 3 -2 28 34 55 81 l49 84 43 0 43
0 0 -160 0 -160 -45 0 -44 0 -3 73 -3 72 -33 -57 c-28 -49 -38 -58 -62 -58
-24 0 -33 9 -59 53 l-31 52 0 -67 0 -68 -50 0 -50 0 0 160 0 160 43 0 c42 0
42 0 91 -80z m696 40 l0 -40 -50 0 -50 0 0 -120 0 -120 -50 0 -50 0 0 120 0
120 -50 0 -50 0 0 40 0 40 150 0 150 0 0 -40z m278 3 l-3 -38 -77 -3 c-69 -3
-78 -5 -78 -22 0 -17 9 -19 68 -22 l67 -3 3 -37 3 -38 -70 0 c-69 0 -71 -1
-71 -25 0 -25 1 -25 80 -25 l80 0 0 -35 0 -35 -130 0 -130 0 0 160 0 160 131
0 130 0 -3 -37z m190 -39 l62 -75 0 75 0 76 50 0 50 0 0 -160 0 -160 -44 0
c-42 0 -46 2 -102 73 l-59 72 -3 -72 -3 -73 -49 0 -50 0 0 160 0 160 43 -1
c40 0 45 -4 105 -75z m775 -77 c37 -83 67 -155 67 -159 0 -5 -23 -8 -51 -8
-47 0 -51 2 -60 30 -11 29 -13 30 -73 30 -59 0 -62 -1 -73 -30 -10 -28 -15
-30 -62 -30 -28 0 -51 2 -51 5 0 5 117 271 131 297 7 13 22 18 57 18 l47 0 68
-153z m356 124 c79 -56 90 -169 25 -241 -44 -48 -90 -64 -162 -57 -95 10 -152
72 -152 165 0 67 26 114 78 142 54 29 164 24 211 -9z m9288 -183 c-3 -8 -6 -5
-6 6 -1 11 2 17 5 13 3 -3 4 -12 1 -19z m108 12 c9 -15 -16 -43 -27 -32 -10
10 0 42 12 42 5 0 12 -5 15 -10z m2562 -16 c-3 -3 -12 -4 -19 -1 -8 3 -5 6 6
6 11 1 17 -2 13 -5z m148 -16 c6 -6 5 -12 -4 -17 -16 -10 -91 7 -111 26 -13
12 -7 13 45 7 33 -4 64 -11 70 -16z m-14726 -719 c47 -17 37 -29 -18 -22 -44
5 -50 3 -65 -20 -21 -30 -12 -73 16 -88 12 -7 38 -8 62 -5 38 6 40 6 25 -10
-10 -9 -33 -16 -55 -16 -96 0 -115 132 -24 165 22 8 24 8 59 -4z m621 -74 c0
-50 -4 -85 -10 -85 -6 0 -10 35 -10 85 0 50 4 85 10 85 6 0 10 -35 10 -85z
m1628 74 c-2 -6 -8 -10 -13 -10 -5 0 -11 4 -13 10 -2 6 4 11 13 11 9 0 15 -5
13 -11z m-1568 -23 c0 -8 10 -17 23 -19 l22 -4 -23 -8 c-19 -6 -23 -14 -20
-44 2 -29 8 -37 26 -39 35 -5 26 -24 -10 -20 -31 3 -33 5 -36 48 -2 24 -9 48
-15 53 -9 7 -9 10 1 14 6 2 12 11 12 19 0 8 5 14 10 14 6 0 10 -6 10 -14z
m-557 -17 c29 -16 37 -28 37 -61 0 -36 -24 -58 -65 -58 -68 0 -86 86 -25 117
31 15 27 15 53 2z m155 -5 c18 -12 22 -25 22 -65 0 -63 -18 -64 -22 -1 -3 45
-4 47 -33 47 -29 0 -30 -2 -33 -47 -2 -34 -7 -48 -18 -48 -11 0 -14 14 -14 59
l0 60 33 4 c17 2 34 5 37 5 3 1 16 -5 28 -14z m133 6 c5 0 9 -4 9 -10 0 -5
-16 -10 -36 -10 -45 0 -41 -18 6 -34 24 -8 35 -17 35 -31 0 -24 -39 -45 -71
-36 -39 10 -33 26 10 23 46 -4 47 17 1 30 -32 8 -46 25 -38 45 7 18 43 33 61
27 8 -2 18 -4 23 -4z m434 -23 c26 -38 19 -47 -36 -47 -36 0 -49 -4 -46 -12 2
-8 21 -13 46 -12 54 1 49 -20 -7 -24 -35 -3 -43 1 -58 23 -45 68 55 138 101
72z m203 5 c18 -23 16 -102 -3 -102 -11 0 -15 12 -15 50 0 46 -2 50 -23 50
-33 0 -47 -19 -47 -62 0 -21 -4 -38 -10 -38 -6 0 -10 27 -10 61 0 45 3 60 13
56 6 -2 21 -1 32 3 24 9 46 2 63 -18z m145 -4 c35 -41 8 -98 -48 -98 -41 0
-65 22 -65 58 1 66 69 90 113 40z m122 11 c5 -5 -6 -9 -27 -9 -20 0 -40 -5
-43 -10 -6 -10 0 -14 48 -25 24 -5 28 -10 25 -33 -3 -25 -7 -27 -47 -27 -25 0
-46 5 -48 12 -3 8 8 10 38 6 33 -5 41 -3 37 8 -2 8 -15 16 -29 17 -32 5 -49
20 -49 44 0 33 65 45 95 17z m110 0 c5 -5 -6 -9 -27 -9 -20 0 -40 -5 -43 -10
-6 -10 0 -14 48 -25 24 -5 28 -10 25 -33 -3 -25 -7 -27 -47 -27 -25 0 -46 5
-48 12 -3 8 8 10 38 6 33 -5 41 -3 37 8 -2 8 -15 16 -29 17 -32 5 -49 20 -49
44 0 33 65 45 95 17z m137 -12 c26 -40 -7 -97 -55 -97 -78 0 -92 98 -17 122
18 6 62 -9 72 -25z m113 12 c5 -5 -6 -9 -27 -9 -20 0 -40 -5 -43 -10 -6 -10 0
-14 48 -25 24 -5 28 -10 25 -33 -3 -25 -7 -27 -47 -27 -25 0 -46 5 -48 12 -3
8 8 10 38 6 33 -5 41 -3 37 8 -2 8 -15 16 -29 17 -32 5 -49 20 -49 44 0 33 65
45 95 17z m170 0 c5 -5 -6 -9 -27 -9 -20 0 -40 -5 -43 -10 -6 -10 0 -14 48
-25 24 -5 28 -10 25 -33 -3 -25 -7 -27 -47 -27 -25 0 -46 5 -48 12 -3 8 8 10
38 6 33 -5 41 -3 37 8 -2 8 -15 16 -29 17 -32 5 -49 20 -49 44 0 33 65 45 95
17z m122 -3 c6 -6 13 -20 15 -31 3 -17 -3 -20 -45 -23 -56 -4 -61 -26 -6 -29
53 -2 55 -3 39 -13 -8 -5 -28 -10 -44 -10 -64 0 -89 70 -39 109 27 22 56 21
80 -3z m156 -32 l21 -44 19 45 c11 25 25 45 33 45 9 0 5 -17 -13 -60 -15 -33
-32 -60 -40 -60 -7 0 -24 25 -38 55 -19 44 -27 54 -42 48 -26 -9 -33 -23 -33
-65 0 -21 -4 -38 -10 -38 -6 0 -10 27 -10 61 0 47 3 60 13 56 8 -3 20 -2 27 3
24 15 52 -3 73 -46z m248 37 l24 -20 -45 2 -45 2 0 -35 c0 -35 0 -35 43 -33
37 2 42 0 32 -13 -7 -7 -19 -14 -27 -14 -12 0 -13 -3 -3 -15 6 -8 9 -19 5 -25
-8 -13 -45 -13 -45 0 0 5 7 7 15 4 26 -10 17 7 -20 39 -51 43 -45 98 15 120
24 9 27 8 51 -12z m138 -7 c18 -16 19 -68 1 -88 -16 -21 -74 -20 -95 0 -10 11
-15 29 -13 53 5 56 65 76 107 35z m112 16 c5 0 9 -4 9 -10 0 -5 -16 -10 -36
-10 -45 0 -41 -18 6 -34 24 -8 35 -17 35 -31 0 -24 -39 -45 -71 -36 -39 10
-33 26 10 23 28 -3 37 0 34 10 -3 7 -13 15 -24 17 -28 5 -44 21 -44 43 0 20
36 40 58 32 8 -2 18 -4 23 -4z m-2149 -47 c3 -46 4 -48 33 -48 29 0 30 2 33
48 4 67 22 58 22 -11 l0 -59 -41 -1 c-56 -3 -69 11 -69 69 0 63 18 64 22 2z
m1778 -13 c0 -47 -3 -60 -15 -60 -12 0 -15 13 -15 60 0 47 3 60 15 60 12 0 15
-13 15 -60z m7162 -934 c4 -6 -2 -16 -14 -22 -26 -14 -98 -10 -108 6 -4 6 -10
11 -14 11 -20 -3 -26 0 -21 10 4 6 13 8 19 6 7 -3 28 -2 47 3 38 8 81 2 91
-14z"/>
<path d="M505 7188 c-7 -27 3 -56 27 -76 10 -8 24 -6 53 8 l40 18 -35 -5 c-40
-6 -56 7 -69 54 l-8 28 -8 -27z"/>
<path d="M648 7141 c-1 -4 -21 -18 -43 -29 -22 -12 -33 -21 -25 -22 20 0 80
37 80 50 0 12 -7 13 -12 1z"/>
<path d="M1573 6957 l-21 -57 40 0 c38 0 40 1 34 26 -4 15 -13 40 -19 57 l-13
31 -21 -57z"/>
<path d="M2541 6963 c-8 -21 -16 -44 -18 -50 -4 -9 7 -13 37 -13 30 0 41 4 37
13 -2 6 -10 29 -18 50 -7 20 -16 37 -19 37 -3 0 -12 -17 -19 -37z"/>
<path d="M2750 6935 l0 -105 29 0 c44 0 81 37 88 87 10 75 -26 123 -92 123
-25 0 -25 0 -25 -105z"/>
<path d="M580 6869 c0 -5 5 -7 10 -4 6 3 10 8 10 11 0 2 -4 4 -10 4 -5 0 -10
-5 -10 -11z"/>
<path d="M17931 6946 c-21 -25 -4 -58 27 -54 23 2 27 8 27 33 0 23 -5 31 -21
33 -11 2 -26 -4 -33 -12z"/>
<path d="M16921 6946 c-21 -25 -4 -58 27 -54 23 2 27 8 27 33 0 23 -5 31 -21
33 -11 2 -26 -4 -33 -12z"/>
<path d="M17044 6946 c-11 -28 1 -51 25 -51 32 0 49 28 32 49 -17 20 -50 21
-57 2z"/>
<path d="M17810 6901 c0 -15 16 -22 34 -15 25 9 19 24 -9 24 -14 0 -25 -4 -25
-9z"/>
<path d="M18060 6901 c0 -15 16 -22 34 -15 25 9 19 24 -9 24 -14 0 -25 -4 -25
-9z"/>
<path d="M18441 6946 c-21 -25 -4 -58 27 -54 23 2 27 8 27 33 0 23 -5 31 -21
33 -11 2 -26 -4 -33 -12z"/>
<path d="M566 6684 c-10 -9 -15 -23 -12 -31 3 -8 6 -17 6 -19 0 -2 11 -4 25
-4 29 0 43 25 28 48 -14 23 -29 25 -47 6z"/>
<path d="M15671 4804 c0 -11 3 -14 6 -6 3 7 2 16 -1 19 -3 4 -6 -2 -5 -13z"/>
<path d="M15690 4792 c0 -10 13 -32 30 -48 16 -16 30 -39 30 -51 0 -16 6 -23
19 -23 10 0 21 -9 24 -20 3 -11 12 -20 21 -20 9 0 16 8 16 20 0 11 5 20 10 20
21 0 9 19 -20 31 -19 9 -32 23 -36 42 -3 17 -15 32 -29 37 -13 5 -26 14 -30
19 -10 18 -35 12 -35 -7z"/>
<path d="M15870 4619 c0 -5 5 -7 10 -4 6 3 10 8 10 11 0 2 -4 4 -10 4 -5 0
-10 -5 -10 -11z"/>
<path d="M15913 4368 c1 -7 -8 -17 -20 -22 -12 -6 -30 -24 -39 -42 -16 -29
-16 -34 1 -77 14 -38 24 -49 59 -63 53 -22 91 -19 127 9 26 20 42 56 19 42 -6
-3 -14 5 -19 18 -6 14 -15 28 -20 32 -15 9 -14 45 2 45 6 0 1 6 -13 13 -14 8
-42 23 -62 35 -22 13 -37 17 -35 10z"/>
<path d="M4791 3325 c-15 -42 -12 -48 23 -43 l25 3 -17 39 -17 38 -14 -37z"/>
<path d="M1537 3320 l-15 -40 33 0 34 0 -16 38 c-8 20 -16 38 -17 40 -2 1 -10
-16 -19 -38z"/>
<path d="M2451 3319 c-6 -18 -11 -34 -11 -35 0 -2 14 -4 30 -4 17 0 30 2 30 4
0 14 -24 66 -30 66 -4 0 -13 -14 -19 -31z"/>
<path d="M5123 3375 c-47 -33 -37 -123 16 -145 82 -34 147 62 90 134 -24 30
-71 35 -106 11z"/>
<path d="M3301 2827 c-15 -44 -12 -50 22 -45 l24 3 -17 40 -17 40 -12 -38z"/>
<path d="M3622 2867 c-31 -33 -30 -90 3 -122 60 -61 152 7 124 92 -18 57 -87
73 -127 30z"/>
<path d="M1234 1946 c-3 -8 -4 -25 -2 -38 2 -18 9 -23 32 -23 36 0 56 27 40
53 -14 22 -62 28 -70 8z"/>
<path d="M1937 1954 c-15 -16 -5 -24 29 -24 24 0 34 4 32 13 -5 13 -50 22 -61
11z"/>
<path d="M2282 1948 c-29 -29 -3 -72 40 -66 19 2 23 9 23 38 0 30 -4 35 -25
38 -14 2 -31 -3 -38 -10z"/>
<path d="M2640 1940 c-15 -28 4 -60 35 -60 31 0 50 32 35 60 -6 12 -21 20 -35
20 -14 0 -29 -8 -35 -20z"/>
<path d="M3067 1954 c-15 -16 -5 -24 29 -24 24 0 34 4 32 13 -5 13 -50 22 -61
11z"/>
<path d="M3594 1935 c-8 -31 10 -55 42 -55 17 0 25 7 30 25 9 38 -2 55 -35 55
-24 0 -32 -5 -37 -25z"/>
<path d="M13892 2933 c-25 -47 -111 -323 -106 -337 6 -17 58 -34 257 -86 65
-17 126 -28 136 -25 22 7 33 28 65 125 14 41 34 101 45 132 28 77 28 100 -1
96 -15 -2 -23 -10 -23 -23 -1 -40 -60 -234 -79 -261 -14 -18 -16 -18 -83 -1
-96 25 -256 76 -265 85 -4 4 6 35 23 67 36 70 49 86 49 62 0 -22 26 -22 39 0
7 14 12 15 24 5 9 -8 18 -9 21 -3 3 5 28 12 56 16 27 4 48 12 47 18 -2 11 62
29 75 21 5 -3 8 4 8 15 0 15 -11 26 -40 37 -22 9 -40 20 -40 25 0 5 -8 9 -18
9 -9 0 -42 9 -72 20 -68 25 -106 26 -118 3z m278 -81 c0 -5 -7 -9 -15 -9 -8 0
-12 4 -9 9 3 4 9 8 15 8 5 0 9 -4 9 -8z"/>
<path d="M14406 2898 c-8 -13 -35 -90 -62 -171 -41 -129 -45 -150 -33 -162 16
-16 329 -105 370 -105 15 0 31 6 36 13 12 16 103 298 103 320 0 24 -15 21 -27
-5 -5 -13 -27 -79 -48 -147 -22 -68 -45 -126 -53 -128 -7 -3 -89 16 -182 43
-183 51 -183 51 -159 111 6 15 15 37 19 48 5 11 17 41 29 67 12 26 21 53 21
60 0 7 6 25 14 40 22 41 -3 55 -28 16z"/>
<path d="M13353 2872 c-11 -7 -69 -153 -120 -301 -14 -41 -13 -45 4 -61 15
-15 233 -82 340 -105 48 -10 67 7 97 87 15 40 31 81 37 90 5 10 9 23 9 28 0 6
9 30 20 52 36 75 21 118 -42 118 -13 0 -28 4 -33 9 -14 13 -253 91 -279 91
-11 0 -27 -4 -33 -8z m336 -122 c-7 -5 -19 -6 -26 -3 -11 5 -12 8 -2 13 7 5
19 6 26 3 11 -5 12 -8 2 -13z m4 -87 c-6 -15 -19 -55 -28 -88 -37 -127 -45
-132 -168 -92 -40 13 -105 34 -144 47 -56 18 -73 28 -73 42 0 10 5 18 10 18 6
0 10 10 10 21 0 17 3 19 14 10 15 -13 32 1 22 18 -7 11 18 33 27 24 4 -3 7
-14 7 -24 0 -15 4 -17 24 -9 14 5 27 5 33 -1 12 -12 114 9 128 26 6 6 16 10
24 7 8 -3 20 3 28 13 7 10 15 16 19 13 3 -4 15 3 26 14 18 18 22 19 36 5 12
-12 13 -22 5 -44z"/>
<path d="M15357 2635 c-15 -47 -27 -94 -27 -105 0 -10 -4 -22 -10 -25 -18 -11
-11 -54 13 -69 24 -15 424 -126 455 -126 23 0 37 16 45 50 3 14 17 67 32 118
15 51 24 101 20 109 -10 27 -21 3 -50 -114 -23 -90 -32 -113 -46 -113 -19 0
-138 26 -164 36 -20 8 -18 18 20 153 14 52 24 100 21 108 -3 7 -18 13 -35 13
-22 0 -30 -5 -34 -22 -3 -13 -14 -54 -25 -93 -11 -38 -22 -82 -26 -97 -4 -20
-13 -28 -28 -28 -31 0 -162 41 -170 53 -6 9 7 61 38 155 8 23 14 52 14 62 0
43 -17 16 -43 -65z"/>
<path d="M12902 2598 c-6 -7 -19 -38 -30 -68 -11 -30 -33 -88 -47 -128 -33
-88 -30 -94 64 -121 100 -30 134 -34 152 -19 9 7 39 71 68 142 46 114 51 131
38 144 -17 17 -37 8 -37 -16 -1 -20 -60 -189 -76 -215 -10 -18 -13 -18 -81 2
-39 12 -77 21 -86 21 -33 0 -28 35 19 131 31 62 58 103 78 117 l31 22 -41 0
c-23 0 -46 -6 -52 -12z"/>
<path d="M13000 2580 c0 -5 6 -10 14 -10 8 0 18 5 21 10 3 6 -3 10 -14 10 -12
0 -21 -4 -21 -10z"/>
<path d="M13741 2485 c-28 -66 -51 -139 -50 -159 1 -20 2 -20 6 -1 2 11 13 39
24 62 10 24 19 49 19 56 0 7 5 18 11 24 6 6 9 19 7 29 -4 16 -7 13 -17 -11z"/>
<path d="M14258 2459 c-9 -20 -19 -51 -23 -70 -4 -18 -11 -40 -15 -49 -12 -25
-51 -143 -57 -172 -7 -37 16 -49 192 -96 207 -56 200 -54 217 -34 20 21 123
341 113 350 -11 11 -28 -26 -68 -153 -44 -140 -48 -149 -72 -153 -30 -6 -355
91 -355 106 0 7 21 72 46 144 25 71 43 137 41 146 -2 12 -8 5 -19 -19z"/>
<path d="M13156 2353 c-16 -43 -33 -82 -38 -87 -4 -6 -8 -20 -8 -32 0 -13 -4
-26 -10 -29 -5 -3 -10 -17 -10 -30 0 -13 -4 -25 -10 -27 -5 -1 -12 -17 -16
-35 -5 -26 -2 -33 17 -43 32 -18 329 -100 360 -100 35 0 41 9 79 110 17 47 35
94 40 105 16 35 40 115 40 130 0 8 -4 15 -9 15 -8 0 -22 -34 -81 -199 -39
-113 -45 -118 -112 -102 -29 7 -66 17 -83 22 -16 5 -69 20 -117 34 -106 31
-114 40 -92 91 9 22 21 49 25 62 9 23 11 28 54 126 29 68 29 66 12 66 -7 0
-25 -35 -41 -77z"/>
<path d="M14105 2298 c-21 -62 -47 -133 -57 -157 -21 -50 4 -51 -226 12 -135
37 -154 45 -159 65 -5 23 -6 23 -21 -8 -14 -29 -14 -33 4 -50 20 -18 324 -110
367 -110 14 0 29 6 35 13 9 11 75 193 107 294 12 40 11 53 -5 53 -4 0 -24 -51
-45 -112z"/>
<path d="M13672 2280 c0 -14 2 -19 5 -12 2 6 2 18 0 25 -3 6 -5 1 -5 -13z"/>
<path d="M15538 2295 c-3 -6 -18 -55 -33 -110 -15 -55 -31 -110 -36 -123 -16
-41 4 -57 103 -86 105 -29 131 -32 145 -13 12 16 73 229 73 256 0 12 -4 21 -9
21 -8 0 -61 -173 -61 -202 0 -34 -27 -42 -88 -27 -119 28 -127 33 -126 76 0
21 10 73 23 117 20 71 24 116 9 91z"/>
<path d="M12732 2166 c-18 -40 -15 -67 3 -32 9 17 14 37 13 45 -2 9 -8 5 -16
-13z"/>
<path d="M12973 2143 c-8 -21 -28 -74 -44 -117 -15 -44 -32 -83 -38 -89 -15
-15 -49 -11 -128 12 -69 21 -73 24 -73 51 0 16 5 32 10 35 6 3 9 21 9 38 -2
30 -2 31 -6 5 -2 -16 -9 -28 -14 -28 -5 0 -9 -9 -9 -19 0 -11 -4 -22 -9 -25
-17 -11 -18 -55 -2 -70 22 -20 164 -58 203 -54 31 3 33 6 85 137 29 74 53 141
53 148 0 26 -21 12 -37 -24z"/>
<path d="M14650 2038 c-18 -57 -41 -130 -51 -162 -22 -70 -24 -90 -6 -105 22
-17 345 -102 379 -99 33 3 27 -11 109 255 19 64 26 125 11 108 -5 -6 -14 -28
-20 -50 -7 -22 -23 -78 -38 -125 -14 -47 -29 -96 -33 -110 -9 -30 -32 -36 -80
-21 -39 12 -190 53 -257 71 -23 5 -44 17 -48 25 -4 12 75 280 91 308 2 4 -3 7
-11 7 -10 0 -25 -32 -46 -102z"/>
<path d="M14110 2013 c-6 -21 -16 -48 -22 -59 -5 -12 -8 -30 -5 -40 3 -13 5
-11 6 9 0 15 5 27 9 27 9 0 37 89 29 96 -3 3 -10 -12 -17 -33z"/>
<path d="M13581 2024 c0 -11 3 -14 6 -6 3 7 2 16 -1 19 -3 4 -6 -2 -5 -13z"/>
<path d="M15172 1993 c-5 -10 -14 -38 -22 -63 -7 -25 -21 -70 -30 -100 -21
-63 -50 -165 -50 -174 0 -16 66 -42 253 -96 211 -61 260 -70 274 -47 7 11 41
128 63 217 5 19 13 53 19 75 14 53 14 68 -1 63 -7 -3 -16 -20 -19 -39 -7 -33
-35 -138 -62 -229 -16 -54 -11 -53 -177 -5 -63 18 -157 44 -209 57 -51 12 -96
28 -98 35 -4 11 4 42 60 231 14 45 21 85 16 87 -4 3 -12 -2 -17 -12z"/>
<path d="M13011 1962 c-7 -17 -11 -37 -8 -44 3 -7 6 -4 6 8 1 11 6 25 12 31 6
6 9 17 7 24 -2 7 -10 -2 -17 -19z"/>
<path d="M13950 1848 c-23 -68 -44 -133 -47 -146 -3 -13 -15 -30 -27 -37 -20
-13 -39 -10 -187 32 -90 25 -171 52 -180 60 -8 7 -18 13 -21 13 -10 0 -18 -29
-12 -44 7 -19 30 -27 221 -81 129 -37 166 -44 183 -35 11 6 20 12 20 13 0 2
25 74 55 162 56 160 62 185 46 185 -4 0 -27 -55 -51 -122z"/>
<path d="M14523 1935 c-6 -11 -19 -47 -28 -80 -10 -33 -31 -98 -48 -143 -34
-97 -23 -93 -172 -53 -176 48 -227 65 -233 79 -3 8 0 28 5 43 7 17 7 31 2 35
-5 3 -9 -1 -9 -9 0 -8 -7 -28 -15 -43 -20 -39 -19 -71 3 -83 25 -13 345 -101
369 -101 11 0 26 6 32 14 18 21 112 316 109 340 -3 21 -4 21 -15 1z"/>
<path d="M9245 1908 c-15 -18 -57 -67 -94 -108 -208 -232 -241 -270 -241 -279
0 -5 -5 -11 -12 -13 -7 -3 -13 -16 -13 -29 -1 -14 -5 -30 -9 -37 -4 -7 -4 -12
0 -12 4 0 -1 -9 -11 -20 -10 -11 -24 -20 -32 -20 -8 0 -13 -11 -13 -29 0 -16
-7 -34 -15 -41 -8 -7 -13 -16 -10 -20 3 -5 -6 -17 -20 -27 -33 -24 -26 -62 11
-55 13 2 24 9 24 16 0 6 5 4 10 -4 7 -12 12 -12 22 -2 6 6 20 12 29 12 10 0
27 14 39 30 12 17 28 30 37 30 15 0 36 16 146 113 33 29 72 60 88 70 16 11 29
22 29 26 0 4 24 25 54 47 78 56 96 87 96 163 0 46 -8 82 -31 142 -18 43 -38
79 -45 79 -7 0 -24 -15 -39 -32z"/>
<path d="M12982 1880 c0 -14 2 -19 5 -12 2 6 2 18 0 25 -3 6 -5 1 -5 -13z"/>
<path d="M14062 1865 c0 -16 2 -22 5 -12 2 9 2 23 0 30 -3 6 -5 -1 -5 -18z"/>
<path d="M13414 1863 c-13 -39 -26 -79 -34 -98 -75 -189 -75 -190 -102 -193
-25 -3 -281 66 -333 90 -14 6 -25 16 -25 21 0 5 -7 4 -15 -3 -45 -38 -6 -61
198 -119 189 -54 209 -55 222 -9 10 37 75 212 86 230 5 10 9 27 9 37 0 11 5
23 10 26 13 8 13 35 0 35 -6 0 -13 -8 -16 -17z"/>
<path d="M12961 1834 c0 -11 3 -14 6 -6 3 7 2 16 -1 19 -3 4 -6 -2 -5 -13z"/>
<path d="M12592 1790 c0 -14 2 -19 5 -12 2 6 2 18 0 25 -3 6 -5 1 -5 -13z"/>
<path d="M12845 1790 c-6 -8 -31 -67 -56 -130 -33 -80 -52 -116 -65 -119 -28
-5 -167 41 -184 61 -19 23 -30 14 -30 -24 0 -34 26 -48 141 -75 72 -18 94 -14
110 18 25 47 99 254 97 268 -3 14 -5 14 -13 1z"/>
<path d="M12572 1740 c0 -14 2 -19 5 -12 2 6 2 18 0 25 -3 6 -5 1 -5 -13z"/>
<path d="M12552 1695 c0 -16 2 -22 5 -12 2 9 2 23 0 30 -3 6 -5 -1 -5 -18z"/>
<path d="M14543 1685 c-11 -21 -39 -104 -63 -185 -25 -88 -34 -115 -43 -127
-12 -16 0 -51 21 -62 33 -17 354 -102 375 -99 27 4 38 27 83 173 20 66 40 130
45 143 11 28 12 62 1 62 -9 0 -19 -26 -63 -170 -17 -58 -38 -118 -46 -134 -18
-34 -12 -35 -222 26 -118 34 -156 49 -161 63 -6 17 53 217 82 282 14 29 5 55
-9 28z"/>
<path d="M13971 1584 c0 -11 3 -14 6 -6 3 7 2 16 -1 19 -3 4 -6 -2 -5 -13z"/>
<path d="M13952 1535 c0 -16 2 -22 5 -12 2 9 2 23 0 30 -3 6 -5 -1 -5 -18z"/>
<path d="M15043 1547 c-5 -6 -20 -46 -32 -87 -13 -41 -27 -86 -32 -100 -4 -14
-16 -58 -26 -97 -21 -89 -18 -93 82 -121 39 -11 140 -41 226 -66 86 -25 164
-46 172 -46 21 0 43 34 56 85 10 42 15 60 52 185 25 88 28 109 14 110 -5 1
-18 -27 -28 -62 -67 -234 -75 -258 -89 -258 -5 0 -32 7 -59 16 -27 9 -127 38
-222 64 l-172 47 3 59 c1 32 6 68 11 79 24 49 68 196 61 200 -4 3 -12 -1 -17
-8z"/>
<path d="M13824 1475 c-3 -19 -10 -38 -15 -41 -5 -3 -9 -14 -9 -25 0 -10 -4
-27 -9 -37 -17 -32 -51 -125 -51 -138 0 -7 -10 -20 -23 -28 -20 -13 -30 -13
-92 3 -165 44 -261 74 -276 87 -8 8 -21 14 -27 14 -16 0 -15 -45 1 -59 8 -6
96 -34 196 -63 138 -39 187 -49 199 -41 17 10 24 26 80 193 18 52 37 103 42
112 13 23 13 58 0 58 -5 0 -12 -16 -16 -35z"/>
<path d="M14363 1445 c-12 -33 -34 -100 -50 -149 -15 -49 -35 -99 -44 -110
-18 -22 -24 -21 -189 25 -41 11 -89 24 -106 28 -52 13 -89 36 -88 54 1 9 -1
17 -6 17 -7 0 -30 -45 -30 -60 0 -17 49 -42 117 -60 38 -10 116 -32 174 -49
58 -17 109 -31 112 -31 19 0 40 45 77 162 23 73 46 142 52 154 5 11 8 34 6 50
-3 26 -5 22 -25 -31z"/>
<path d="M13931 1474 c0 -11 3 -14 6 -6 3 7 2 16 -1 19 -3 4 -6 -2 -5 -13z"/>
<path d="M10270 1461 c-25 -3 -67 -18 -95 -31 -41 -20 -50 -29 -47 -48 1 -13
9 -30 17 -39 9 -8 27 -38 41 -66 33 -65 34 -132 5 -250 -12 -48 -21 -97 -19
-110 4 -29 47 -34 78 -9 20 16 27 44 57 223 24 146 32 219 27 257 -4 35 -3 52
5 53 6 1 16 2 21 3 6 0 11 6 13 11 3 12 -43 15 -103 6z"/>
<path d="M8830 1435 c-7 -9 -11 -18 -8 -20 9 -10 38 7 38 21 0 18 -14 18 -30
-1z"/>
<path d="M12442 1405 c0 -16 2 -22 5 -12 2 9 2 23 0 30 -3 6 -5 -1 -5 -18z"/>
<path d="M13251 1411 c-7 -12 -21 -48 -32 -79 -11 -32 -24 -68 -30 -82 -6 -14
-21 -49 -32 -79 -31 -75 -40 -79 -133 -52 -200 58 -274 83 -274 91 0 6 -7 10
-15 10 -24 0 -18 -47 8 -64 26 -16 334 -106 364 -106 33 0 37 8 133 273 31 84
37 138 11 88z"/>
<path d="M13911 1414 c0 -11 3 -14 6 -6 3 7 2 16 -1 19 -3 4 -6 -2 -5 -13z"/>
<path d="M9977 1393 c-44 -12 -123 -60 -133 -80 -6 -13 -18 -31 -27 -41 -10
-10 -17 -24 -17 -30 0 -6 -9 -14 -21 -17 -45 -15 -105 -105 -69 -105 18 0 10
-29 -12 -46 l-23 -16 23 5 c19 5 22 1 22 -28 0 -30 3 -33 40 -39 22 -3 40 -11
40 -17 0 -6 -7 -9 -15 -5 -9 3 -15 0 -15 -10 0 -20 30 -30 40 -13 7 11 14 9
34 -11 15 -13 26 -18 26 -12 0 7 7 12 15 12 8 0 15 -5 15 -12 0 -6 11 -1 25
12 l25 23 0 -31 c0 -27 -4 -32 -25 -32 -14 0 -25 -4 -25 -10 0 -5 13 -10 29
-10 24 0 31 5 36 28 3 15 16 32 28 37 12 6 24 19 26 29 2 11 9 25 16 33 7 7
25 62 39 122 21 91 24 120 17 175 -4 37 -12 71 -18 77 -12 12 -71 20 -96 12z
m-138 -236 c19 -24 22 -71 6 -92 -11 -14 -25 -18 -52 -17 -43 3 -79 30 -63 46
5 5 10 18 10 27 0 38 75 64 99 36z"/>
<path d="M12674 1368 c-11 -30 -44 -116 -73 -191 -6 -15 -18 -30 -27 -34 -18
-7 -180 43 -190 58 -3 6 -1 15 4 22 6 7 13 35 16 62 3 28 3 43 0 35 -3 -8 -15
-34 -25 -58 -46 -102 -37 -118 84 -151 108 -29 124 -28 141 12 8 17 22 49 31
71 9 21 21 50 25 65 5 14 18 51 29 81 25 65 24 60 8 60 -6 0 -17 -15 -23 -32z"/>
<path d="M12422 1360 c0 -14 2 -19 5 -12 2 6 2 18 0 25 -3 6 -5 1 -5 -13z"/>
<path d="M13891 1354 c0 -11 3 -14 6 -6 3 7 2 16 -1 19 -3 4 -6 -2 -5 -13z"/>
<path d="M14397 1233 c-2 -5 -21 -62 -41 -128 -21 -66 -47 -142 -57 -169 -23
-60 -24 -69 -1 -89 26 -24 366 -121 396 -113 23 6 30 21 65 134 67 214 74 243
62 255 -7 7 -12 6 -15 -4 -2 -8 -25 -79 -51 -159 -25 -80 -50 -151 -54 -158
-9 -14 -49 -6 -249 52 -68 20 -125 36 -128 36 -11 0 0 48 37 161 57 172 59
178 49 184 -5 3 -10 2 -13 -2z"/>
<path d="M8730 1190 c0 -6 7 -10 15 -10 8 0 15 2 15 4 0 2 -7 6 -15 10 -8 3
-15 1 -15 -4z"/>
<path d="M13261 1134 c0 -11 3 -14 6 -6 3 7 2 16 -1 19 -3 4 -6 -2 -5 -13z"/>
<path d="M13812 1128 c-7 -7 -12 -26 -12 -42 1 -30 1 -30 15 9 15 43 15 51 -3
33z"/>
<path d="M11897 1104 c-4 -4 -7 -14 -7 -23 0 -11 3 -12 11 -4 6 6 10 16 7 23
-2 6 -7 8 -11 4z"/>
<path d="M14890 1053 c-6 -27 -15 -57 -20 -68 -7 -18 -25 -77 -64 -212 -23
-80 -43 -69 324 -177 170 -51 182 -52 199 -32 18 22 113 378 103 388 -14 14
-30 -13 -46 -76 -9 -32 -22 -71 -31 -88 -8 -17 -15 -42 -15 -55 0 -12 -4 -23
-9 -23 -5 0 -11 -10 -14 -22 -3 -22 -4 -22 -12 -4 -6 13 -5 21 3 24 15 5 16
32 2 32 -5 0 -19 -9 -30 -20 -27 -27 -30 -26 -30 13 0 22 -9 44 -26 63 l-25
29 3 -35 c3 -31 0 -35 -19 -33 -14 2 -23 -3 -23 -11 0 -7 -14 -19 -30 -26 -26
-11 -33 -10 -50 5 -11 10 -20 28 -20 39 -1 13 -15 30 -36 44 -31 19 -41 21
-72 13 -19 -6 -39 -8 -44 -5 -11 7 -10 -13 2 -37 6 -11 8 -24 4 -31 -4 -7 -12
-2 -20 13 -7 13 -13 18 -14 12 0 -7 -5 -13 -10 -13 -7 0 -9 14 -5 38 10 71 24
137 35 177 6 22 15 59 19 83 11 60 -13 56 -29 -5z m340 -319 c0 -14 -4 -23 -9
-20 -5 3 -7 15 -4 26 7 28 13 25 13 -6z"/>
<path d="M12305 1052 c-10 -7 -30 -46 -45 -87 -14 -38 -27 -70 -49 -118 -24
-54 -27 -99 -8 -115 7 -6 56 -23 107 -37 81 -21 97 -23 115 -11 26 18 131 287
121 313 -7 15 -10 13 -26 -17 -9 -19 -34 -80 -55 -135 -20 -55 -41 -104 -46
-110 -10 -10 -116 22 -126 39 -4 6 -6 23 -5 38 1 15 -2 28 -8 28 -18 0 -11 68
15 137 26 67 28 88 10 75z"/>
<path d="M13652 1003 c-11 -32 -31 -87 -43 -123 -34 -101 -57 -150 -73 -156
-23 -9 -338 85 -362 107 -19 18 -22 18 -28 4 -12 -33 -6 -55 22 -68 30 -16
343 -107 365 -107 27 0 45 36 103 207 42 123 55 176 48 183 -8 8 -17 -5 -32
-47z"/>
<path d="M13782 1030 c0 -14 2 -19 5 -12 2 6 2 18 0 25 -3 6 -5 1 -5 -13z"/>
<path d="M14193 943 c-60 -168 -83 -227 -93 -237 -7 -7 -45 -2 -123 18 -179
47 -240 69 -253 94 l-11 22 -11 -25 c-17 -37 -15 -53 11 -69 40 -25 336 -107
375 -104 l37 3 57 170 c31 94 57 180 57 193 2 45 -16 20 -46 -65z"/>
<path d="M13767 994 c-4 -4 -7 -17 -7 -28 1 -19 1 -20 11 -3 11 19 8 43 -4 31z"/>
<path d="M13017 800 c-33 -87 -66 -165 -74 -171 -12 -10 -28 -9 -81 4 -166 43
-278 81 -293 97 -16 18 -17 18 -27 -5 -10 -21 -8 -28 9 -44 22 -20 330 -111
379 -111 36 0 36 0 109 205 64 181 65 185 49 185 -8 0 -37 -65 -71 -160z"/>
<path d="M13736 905 c-9 -26 -7 -32 5 -12 6 10 9 21 6 23 -2 3 -7 -2 -11 -11z"/>
<path d="M9856 875 c4 -8 10 -15 15 -15 5 0 9 7 9 15 0 8 -7 15 -15 15 -9 0
-12 -6 -9 -15z"/>
<path d="M14244 748 c-16 -24 -107 -313 -112 -351 -4 -34 -2 -38 29 -51 85
-35 359 -108 383 -102 22 5 29 20 60 119 19 61 44 141 56 176 11 35 20 74 20
87 0 27 -19 42 -30 24 -6 -9 -11 -8 -19 6 -10 16 -11 11 -6 -23 8 -51 -7 -63
-53 -39 -34 18 -42 32 -35 67 5 29 -13 40 -92 59 -27 7 -61 16 -75 20 -52 17
-118 21 -126 8z m230 -148 c26 -10 34 -34 16 -45 -5 -3 -10 -16 -10 -29 0 -12
-3 -26 -7 -30 -5 -4 -8 -18 -8 -29 0 -30 -34 -25 -90 13 -45 31 -52 60 -16 60
27 0 31 10 15 36 -9 13 -13 28 -9 35 8 12 64 7 109 -11z"/>
<path d="M13076 628 c-10 -29 -25 -68 -33 -87 -8 -19 -18 -51 -20 -72 -3 -22
-10 -39 -14 -39 -5 0 -9 -8 -9 -17 0 -10 -9 -33 -20 -51 -40 -65 -25 -82 105
-120 39 -11 109 -32 158 -46 116 -34 144 -34 158 2 56 140 128 367 120 375
-18 18 -38 -1 -60 -62 -25 -69 -47 -94 -36 -40 4 19 14 42 22 51 22 25 12 61
-21 76 -15 8 -74 25 -131 39 l-103 26 -36 -28 c-20 -15 -36 -33 -36 -40 0 -7
-9 -32 -19 -56 -14 -31 -18 -56 -14 -87 5 -37 9 -42 32 -42 28 0 66 -34 56
-50 -4 -6 6 -10 22 -10 34 0 58 -14 49 -28 -9 -15 27 -25 39 -10 14 17 51 38
69 38 14 0 30 55 20 71 -3 5 2 6 10 3 19 -7 30 -40 19 -56 -4 -7 -8 -17 -8
-23 -2 -29 -19 -81 -32 -93 -12 -13 -22 -13 -61 -3 -26 7 -81 20 -122 29 -41
10 -80 20 -85 24 -6 3 -27 9 -48 13 -37 7 -67 42 -46 55 4 3 17 32 29 65 12
33 25 69 30 80 20 47 50 137 50 150 0 31 -17 13 -34 -37z m192 -103 c82 -39
103 -104 46 -142 -22 -14 -32 -14 -78 -4 -54 12 -100 44 -93 64 2 7 17 18 33
26 16 8 23 16 16 19 -16 5 -16 49 1 55 20 8 21 8 75 -18z"/>
<path d="M12148 658 c-19 -15 -128 -282 -128 -314 0 -33 28 -49 122 -73 109
-26 114 -26 133 3 22 33 115 282 115 306 0 32 -20 23 -37 -17 -8 -21 -26 -61
-39 -89 -13 -28 -24 -59 -24 -70 0 -10 -9 -34 -21 -53 -18 -29 -24 -33 -51
-27 -66 13 -75 49 -28 114 37 52 41 110 9 130 -15 10 -20 21 -17 47 3 42 -11
60 -34 43z"/>
<path d="M13642 637 c-14 -26 -122 -344 -122 -357 0 -20 54 -42 224 -91 145
-42 181 -50 201 -41 20 9 34 42 85 198 33 103 59 193 56 201 -3 7 -16 13 -29
13 -13 0 -27 4 -32 9 -13 11 -267 78 -326 85 -40 5 -47 2 -57 -17z m198 -170
c38 -19 45 -27 48 -55 4 -45 -24 -55 -50 -19 -11 15 -35 34 -54 43 -21 10 -34
23 -34 35 0 26 33 24 90 -4z"/>
<path d="M14755 608 c-22 -72 -72 -232 -110 -358 -26 -85 -53 -174 -61 -198
-8 -23 -14 -45 -14 -47 0 -3 137 -5 303 -5 l304 0 26 88 c59 200 99 361 94
374 -3 8 -31 20 -63 27 -33 7 -86 20 -119 30 -33 10 -98 28 -145 40 -47 13
-93 27 -103 32 -10 6 -26 7 -36 4 -12 -3 -21 0 -25 10 -7 18 -45 20 -51 3z"/>
<path d="M12472 543 c-7 -12 -12 -27 -12 -32 0 -11 -31 -87 -51 -123 -5 -10
-9 -24 -9 -31 0 -7 -10 -33 -22 -58 -11 -24 -21 -60 -22 -79 -1 -31 3 -37 34
-52 33 -16 222 -70 323 -92 59 -12 65 -7 100 89 14 39 44 120 67 182 38 103
43 133 21 133 -5 0 -23 -39 -40 -87 -18 -49 -43 -109 -56 -134 -14 -26 -25
-56 -25 -68 0 -11 -5 -32 -12 -46 -14 -32 -27 -31 -163 9 -229 68 -234 72
-189 177 14 35 33 87 41 114 8 28 19 60 25 72 15 30 5 55 -10 26z"/>
<path d="M12210 385 c0 -8 7 -15 15 -15 8 0 15 7 15 15 0 8 -7 15 -15 15 -8 0
-15 -7 -15 -15z"/>
<path d="M13325 320 c-3 -5 -1 -10 4 -10 6 0 11 5 11 10 0 6 -2 10 -4 10 -3 0
-8 -4 -11 -10z"/>
<path d="M14091 266 c-11 -13 -91 -240 -91 -258 0 -4 38 -8 85 -8 49 0 85 4
85 10 0 5 14 17 31 25 30 16 30 17 13 36 -29 32 -5 43 47 23 74 -29 92 -58 44
-70 -57 -14 -19 -25 82 -22 l106 3 19 55 c29 84 23 100 -42 123 -72 25 -335
97 -353 97 -8 0 -20 -6 -26 -14z"/>
<path d="M11976 234 c-22 -21 -20 -62 4 -109 11 -22 20 -45 20 -53 0 -8 14
-19 30 -25 17 -6 30 -15 30 -20 0 -5 9 -6 19 -2 11 3 25 -1 34 -10 9 -8 27
-15 40 -15 22 0 29 9 52 70 15 38 25 77 23 86 -2 9 -19 22 -38 29 -19 7 -66
24 -105 39 -82 30 -88 31 -109 10z"/>
<path d="M12911 158 c-5 -13 -20 -52 -35 -87 -14 -36 -26 -66 -26 -68 0 -2 32
-3 70 -3 54 0 72 4 76 15 8 19 38 19 54 0 10 -12 40 -15 151 -15 l138 0 7 36
c3 19 3 39 -2 44 -5 4 -38 15 -74 25 -36 9 -99 26 -140 37 -123 33 -132 33
-169 3 -34 -29 -53 -26 -33 5 7 12 8 21 2 25 -6 3 -14 -4 -19 -17z"/>
<path d="M13487 166 c-14 -11 -25 -36 -52 -123 l-13 -43 249 0 249 0 0 30 c0
18 -7 33 -18 39 -17 9 -277 81 -359 99 -30 7 -47 6 -56 -2z"/>
<path d="M12285 54 c-8 -20 -15 -40 -15 -45 0 -5 62 -8 138 -8 75 1 128 4 117
6 -11 3 -27 11 -36 19 -8 8 -30 17 -47 20 -18 4 -35 11 -38 15 -3 5 -16 9 -29
9 -13 0 -27 5 -30 10 -14 23 -45 9 -60 -26z m78 -8 c4 -10 1 -13 -9 -9 -15 6
-19 23 -5 23 5 0 11 -7 14 -14z"/>
</g>
</svg>
