<?xml version="1.0"?>
<svg width="1024" height="1024" xmlns="http://www.w3.org/2000/svg" xmlns:svg="http://www.w3.org/2000/svg" preserveAspectRatio="xMidYMid meet" version="1.0">
 <title>Logo</title>
 <defs>
  <radialGradient gradientTransform="translate(-0.9 0) scale(2, 2)" id="gradient">
   <stop offset="24%" stop-color="#f5d0fe"/>
   <stop offset="34.86%" stop-color="#e0cbfe"/>
   <stop offset="45.71%" stop-color="#c5c8fe"/>
   <stop offset="56.57%" stop-color="#9dc7fe"/>
   <stop offset="67.43%" stop-color="#3ccafd"/>
   <stop offset="78.29%" stop-color="#1bc5dd"/>
   <stop offset="100%" stop-color="#14b8a6"/>
  </radialGradient>
 </defs>
 <g class="layer">
  <title>Layer 1</title>
  <g fill="url(#gradient)" id="svg_1" transform="matrix(0.148304 0 0 -0.141351 -220.915 -213.743)">
   <path d="m4521.98,-1760c-494,-259 -744,-801 -600,-1298c61,-212 148,-349 340,-540c153,-152 195,-205 231,-292c22,-53 23,-66 23,-366c0,-171 3,-346 6,-388c7,-75 7,-76 25,-57c10,11 39,34 64,51l46,32l-3,341c-3,333 -4,343 -25,384c-13,23 -23,45 -23,48c0,3 10,-1 23,-9c12,-7 39,-19 59,-25c34,-11 36,-15 32,-44c-2,-18 -5,-170 -7,-339l-4,-307l44,32c73,54 393,276 476,330l77,51l0,86c0,177 45,263 235,455c78,78 162,172 189,209c135,189 219,483 201,706c-15,183 -90,399 -192,552c-59,89 -196,229 -283,290c-62,44 -203,128 -215,128c-3,0 -5,-171 -5,-379l0,-380l-157,-106c-86,-58 -162,-104 -170,-101c-7,3 -81,51 -163,107l-150,100l0,380c0,217 -4,379 -9,379c-5,0 -34,-13 -65,-30zm-105,-292c-53,-71 -96,-161 -123,-255c-20,-67 -23,-101 -23,-238c1,-157 1,-161 33,-242c19,-46 51,-110 73,-143c88,-131 246,-239 382,-262c57,-10 69,-9 152,20c50,16 197,78 327,136c131,58 243,106 250,106c17,0 -121,-101 -257,-188c-202,-128 -661,-340 -710,-328c-41,10 -147,88 -215,159c-348,358 -311,937 80,1244c30,24 59,43 63,43c4,0 -10,-24 -32,-52zm1315,-519c7,-79 -7,-209 -31,-289c-78,-265 -272,-492 -519,-606c-135,-62 -269,-78 -427,-52l-71,11l176,52c249,74 351,117 471,198c135,91 279,259 328,379c40,100 60,226 55,343c-5,113 8,87 18,-36zm-822,-1632c21,-16 24,-60 6,-82c-15,-18 -61,-20 -78,-3c-17,17 -15,64 4,82c19,19 44,20 68,3z" id="svg_2"/>
   <path d="m3320.98,-2329c-27,-20 -157,-117 -287,-215c-131,-98 -238,-182 -238,-187c0,-12 62,-133 134,-262l55,-98l-86,-92c-47,-51 -135,-153 -196,-227c-60,-74 -113,-139 -117,-143c-4,-5 -85,3 -180,17c-94,14 -178,26 -186,26c-20,0 -259,-497 -303,-631l-12,-37l58,-55c32,-30 82,-74 110,-98c56,-47 62,-64 43,-129c-15,-48 -57,-263 -65,-331c-4,-31 -10,-60 -13,-66c-4,-5 -45,-23 -92,-39l-85,-30l0,-254l0,-253l90,-35l91,-34l12,-91c7,-51 24,-148 39,-217c14,-69 26,-134 27,-145c1,-14 -34,-53 -107,-119c-88,-81 -106,-103 -101,-120c29,-99 289,-636 308,-636c6,0 91,16 189,36c97,20 179,35 180,33c141,-188 264,-338 344,-421l54,-57l-59,-103c-64,-111 -142,-259 -142,-270c0,-13 393,-315 528,-407l62,-42l114,75l114,75l142,-50c79,-27 144,-48 146,-46c2,1 4,149 4,327l2,324l-115,76c-275,182 -532,434 -702,690c-203,306 -350,675 -404,1015c-11,70 -31,271 -31,313c0,21 -4,22 -86,22l-85,0l2,55l2,55l83,0l83,0l5,58c35,346 106,603 246,887c179,364 426,647 755,869c55,37 101,69 103,70c1,2 -7,33 -19,69c-25,76 -14,76 -134,-1c-138,-90 -258,-183 -365,-285c-439,-415 -714,-956 -806,-1584c-5,-33 -5,-33 -64,-33c-70,0 -66,-11 -44,139c36,247 90,443 180,660c225,537 642,1012 1117,1275c66,36 69,39 63,70c-23,139 -13,359 23,489c10,37 17,67 15,67c-2,0 -29,-10 -60,-21l-56,-21l-42,23c-22,12 -71,42 -108,66c-36,24 -70,43 -75,42c-4,0 -30,-17 -58,-38z" id="svg_3"/>
   <path d="m6390.98,-2355c-55,-35 -109,-64 -120,-64c-12,-1 -54,10 -95,24c-41,13 -78,25 -82,25c-3,0 0,-26 7,-58c34,-145 40,-316 19,-507l-6,-50l43,-24c74,-41 259,-172 349,-247c98,-82 279,-267 362,-369c184,-229 344,-531 418,-788l19,-68l-36,-15c-19,-8 -37,-13 -40,-11c-2,3 -23,60 -47,128c-76,218 -160,380 -297,574c-185,263 -459,519 -719,671l-74,44l-23,-68c-27,-81 -27,-82 -8,-82c21,0 33,-37 27,-82c-5,-43 -6,-44 -55,-23c-20,8 -38,15 -40,15c-4,0 -106,-170 -110,-184c-1,-2 50,-39 113,-81c63,-42 140,-98 170,-123c59,-50 180,-173 180,-183c0,-8 -77,-79 -86,-79c-3,0 -33,25 -66,55c-104,97 -301,245 -326,245c-8,0 -102,-131 -102,-142c0,-3 39,-35 88,-71c79,-58 189,-163 181,-172c-2,-1 -24,-19 -48,-39l-43,-36l-62,53c-65,57 -157,127 -192,145c-19,10 -27,5 -76,-47l-55,-58l91,-64c181,-128 323,-288 428,-485l53,-101l60,29c33,15 64,29 70,31c19,7 -65,175 -158,318l-17,26l51,33l52,33l18,-24c49,-66 47,-65 66,-52c10,7 105,67 212,135c107,68 205,130 218,138c12,8 23,20 23,27c0,25 -170,250 -257,341c-7,7 -13,15 -13,18c0,9 65,63 76,64c14,0 116,-108 197,-209c81,-102 195,-277 247,-381c124,-248 223,-600 245,-877l7,-83l89,0l89,0l0,-55l0,-55l-88,0l-89,0l-6,-132c-37,-742 -457,-1478 -1082,-1898c-57,-39 -109,-70 -115,-70c-7,0 -10,-110 -10,-330c0,-258 3,-330 13,-330c6,1 63,21 126,45c132,51 111,54 263,-45l90,-60l30,18c38,22 386,283 484,363c41,33 74,65 74,71c0,5 -30,65 -67,131c-37,67 -81,149 -100,183l-33,61l31,29c42,39 199,227 289,346c59,78 78,97 94,93c12,-2 95,-18 185,-36c160,-30 165,-31 179,-13c22,29 237,469 272,559l31,79l-68,61c-37,33 -88,79 -113,101l-44,42l32,164c18,89 36,194 42,232c5,37 11,70 14,73c3,3 45,20 93,39l88,33l0,251l0,252l-87,32c-47,17 -89,33 -91,36c-3,3 -15,63 -26,134c-20,117 -54,288 -66,327c-4,12 28,47 109,118l115,102l-23,62c-52,138 -263,590 -284,608c-4,3 -81,-6 -172,-22c-91,-16 -172,-29 -181,-29c-9,0 -49,42 -90,93c-73,92 -194,234 -233,273c-12,11 -38,39 -60,61l-38,41l74,134c41,73 87,154 101,181l26,48l-92,72c-175,139 -490,368 -504,366c-5,0 -53,-29 -108,-64z" id="svg_4"/>
   <path d="m3739.98,-3419c-126,-84 -268,-206 -373,-319c-94,-100 -213,-252 -208,-264c3,-9 177,-128 186,-128c3,1 31,35 61,77c68,95 234,270 313,331c72,55 218,152 229,152c4,0 8,4 8,9c0,14 -107,195 -118,199c-5,1 -49,-24 -98,-57z" id="svg_5"/>
   <path d="m3925.98,-3741c-134,-91 -220,-169 -341,-309c-51,-59 -157,-200 -178,-238c-7,-12 -37,3 -161,81c-83,54 -153,97 -155,97c-8,0 -87,-153 -128,-250c-41,-96 -92,-248 -99,-294c-3,-16 16,-26 112,-62c103,-38 241,-93 247,-98c2,-1 -5,-43 -15,-92c-13,-70 -17,-145 -17,-345l0,-256l-180,-28c-99,-15 -183,-31 -186,-34c-10,-9 35,-214 71,-321c55,-163 141,-359 183,-415c14,-18 17,-18 34,-4c10,9 63,42 118,74c55,32 117,69 137,82l37,23l52,-78c114,-169 257,-331 378,-426l59,-46l4,118l4,117l-77,80c-115,122 -207,252 -282,402c-131,260 -195,598 -168,888c47,497 250,879 622,1168c48,37 92,67 98,67c6,0 11,3 11,7c0,11 -91,143 -98,143c-4,0 -41,-23 -82,-51zm-660,-815c84,-50 78,-163 -10,-209c-39,-20 -69,-19 -104,4c-126,83 -15,281 114,205zm-195,-1258c24,-36 3,-76 -40,-76c-27,0 -35,5 -45,30c-11,26 -10,33 5,50c25,27 61,25 80,-4z" id="svg_6"/>
   <path d="m4084.98,-3995c-167,-125 -334,-325 -426,-510c-64,-126 -64,-119 12,-155c37,-18 68,-30 70,-28c1,1 19,37 40,78c95,192 253,381 418,500c41,30 76,57 76,60c0,3 -24,31 -53,62l-52,57l-85,-64z" id="svg_7"/>
   <path d="m6730.98,-4147c-73,-43 -300,-184 -373,-230c-50,-32 -51,-35 -38,-56c32,-49 106,-249 135,-362c69,-277 75,-534 19,-795c-16,-77 -80,-276 -112,-351c-6,-13 5,-24 46,-48c29,-17 63,-38 75,-47c21,-15 22,-14 43,33c111,245 154,431 166,716l7,157l194,0l193,0l0,30c0,17 -9,96 -20,176c-31,219 -82,403 -167,602c-37,87 -101,214 -106,211c-1,0 -29,-17 -62,-36zm-88,-475c42,-39 20,-108 -35,-108c-56,0 -83,69 -42,110c26,26 48,25 77,-2zm284,-60c14,-27 -13,-68 -46,-68c-49,0 -67,73 -21,89c28,11 55,2 67,-21z" id="svg_8"/>
   <path d="m5217.98,-4333c-40,-29 -169,-122 -287,-207l-215,-154l0,-51c-1,-156 -21,-770 -27,-848l-8,-92l-7,75c-3,41 -10,254 -14,473c-4,218 -9,397 -11,397c-3,0 -31,-21 -63,-47l-59,-48l-2,-185c-2,-231 -2,-225 30,-285l26,-50l3,-562c2,-310 4,-563 6,-563c2,0 41,22 87,49c46,26 129,74 184,106c55,32 164,95 243,142l142,84l-4,122c-3,67 -2,239 1,381l6,259l29,32l28,33l0,496c0,273 -3,496 -7,495c-5,0 -41,-24 -81,-52zm-229,-1407c60,-47 53,-143 -12,-169c-70,-30 -141,15 -141,89c0,31 7,44 35,69c42,36 81,40 118,11z" id="svg_9"/>
   <path d="m2817.98,-4857c-24,-145 -34,-310 -27,-451l7,-143l34,6c19,3 51,7 72,10c20,3 60,10 89,16l52,10l0,167c0,134 9,269 24,367c2,9 -147,66 -209,79l-31,7l-11,-68z" id="svg_10"/>
   <path d="m6883.98,-5248c-45,-2 -56,-6 -51,-17c8,-23 -16,-273 -37,-371c-10,-49 -18,-89 -17,-90c10,-7 239,-76 241,-73c6,8 37,169 51,269c8,58 15,144 15,193l0,87l-37,1c-21,0 -54,2 -73,3c-19,1 -61,0 -92,-2z" id="svg_11"/>
   <path d="m5395.98,-5667c0,-194 2,-353 4,-353c3,0 31,16 63,35c32,19 61,35 66,35c4,0 7,-36 7,-80l0,-80l-56,-36c-52,-34 -428,-256 -834,-494c-319,-187 -545,-323 -562,-338c-16,-13 -18,-37 -18,-213l0,-199l68,42c37,22 186,109 332,193c146,84 333,191 415,239c431,251 633,366 643,366c8,0 12,-27 12,-85l0,-84l-42,-29c-24,-15 -142,-86 -263,-157c-121,-70 -294,-172 -385,-225c-91,-53 -211,-123 -268,-156c-56,-32 -193,-113 -305,-179l-202,-120l-3,-187l-2,-188l64,35c36,19 88,49 117,65c28,17 53,29 55,27c3,-2 -1,-28 -7,-57c-17,-81 -6,-242 21,-315c96,-256 344,-418 615,-402c133,8 220,42 337,130c70,53 80,69 93,157c4,25 14,59 23,75c42,82 55,249 28,350c-20,75 -74,179 -123,236l-43,51l0,80l0,81l-41,38l-41,37l26,17c88,58 332,191 339,185c4,-3 6,-58 5,-120l-3,-114l-67,-40c-64,-39 -66,-41 -63,-77c2,-25 19,-62 50,-110c97,-145 133,-318 101,-479c-10,-46 -24,-97 -33,-113c-14,-28 -14,-29 3,-22c11,4 43,16 73,26c162,57 257,166 255,294c-1,103 -60,192 -159,239l-47,23l49,28c99,57 153,126 174,225c9,43 8,60 -10,118c-25,82 -67,134 -134,169l-52,26l35,26c149,110 202,260 141,398c-27,61 -101,134 -154,154c-43,15 -46,22 -14,36c43,20 138,116 163,166c50,97 40,206 -27,303c-33,48 -107,101 -155,110c-19,3 -34,9 -34,13c0,3 21,17 46,31c70,37 144,108 170,165c60,127 3,296 -119,353c-36,17 -68,21 -185,24l-142,3l0,-352zm-335,-2039c66,-33 138,-106 168,-172c34,-73 31,-198 -6,-274c-32,-65 -103,-134 -174,-169c-39,-19 -64,-23 -138,-23c-78,0 -98,3 -146,27c-66,32 -132,99 -162,165c-17,36 -22,67 -22,132c0,73 4,94 29,147c79,173 284,248 451,167zm288,-130c15,-34 27,-70 26,-80c0,-11 -10,9 -23,42c-12,34 -33,79 -45,100c-19,32 -19,36 -3,19c10,-11 31,-48 45,-81zm34,-136c-3,-7 -5,-2 -5,12c0,14 2,19 5,13c2,-7 2,-19 0,-25zm10,-80c-2,-13 -4,-5 -4,17c-1,22 1,32 4,23c2,-10 2,-28 0,-40z" id="svg_12"/>
   <path d="m4271.98,-5334c-21,-8 -52,-27 -68,-43c-55,-51 -58,-68 -58,-353l0,-261l-40,-98l-40,-97l0,-303l0,-302l48,27c26,15 114,68 196,117c82,49 164,96 182,105l34,16l0,531l0,531l-29,45c-51,81 -142,115 -225,85z" id="svg_13"/>
   <path d="m6715.98,-5907c-61,-186 -228,-476 -362,-630c-68,-78 -217,-217 -291,-273l-46,-35l-1,-168l0,-168l31,18c119,69 319,240 436,372c200,224 348,463 456,736c60,151 66,134 -65,178c-63,20 -119,37 -125,37c-6,0 -21,-30 -33,-67zm-311,-805c14,-24 14,-28 -3,-47c-35,-39 -86,-21 -86,29c0,55 62,68 89,18z" id="svg_14"/>
   <path d="m6270.98,-6107c-37,-59 -130,-178 -202,-257l-53,-59l0,-120l0,-119l53,44c82,68 173,165 251,268c72,96 126,181 126,198c0,10 -122,92 -137,92c-4,0 -21,-21 -38,-47z" id="svg_15"/>
   <path d="m3269.98,-6348c-116,-71 -124,-76 -124,-83c0,-3 25,-43 57,-90c83,-125 207,-273 216,-258c1,3 40,43 86,91l83,85l-81,97c-44,52 -97,120 -117,151c-20,30 -38,55 -39,55c-1,0 -37,-22 -81,-48z" id="svg_16"/>
   <path d="m3592.98,-6778c-48,-48 -87,-91 -87,-95c0,-10 103,-106 180,-168c61,-49 194,-139 204,-139c4,0 6,71 6,158l0,157l-81,65c-44,36 -93,75 -108,87l-27,22l-87,-87z" id="svg_17"/>
  </g>
 </g>
</svg>