<?xml version="1.0" standalone="no"?>
<!DOCTYPE svg PUBLIC "-//W3C//DTD SVG 20010904//EN"
 "http://www.w3.org/TR/2001/REC-SVG-20010904/DTD/svg10.dtd">
<svg version="1.0" xmlns="http://www.w3.org/2000/svg"
 width="150px" height="150px" viewBox="0 0 584.000000 576.000000"
 preserveAspectRatio="xMidYMid meet">

<rect width="100%" height="100%" fill="#3b82f6" />

<g transform="translate(0.000000,576.000000) scale(0.100000,-0.100000)"
fill="#93c5fd" stroke="none">
<path d="M593 5402 c-100 -35 -171 -115 -193 -216 -8 -36 -10 -638 -8 -2096
l3 -2045 21 -46 c31 -66 78 -114 142 -146 l57 -28 1020 -3 1020 -2 156 -155
c150 -150 157 -155 197 -155 37 0 48 7 105 60 l64 60 74 -34 c41 -19 93 -40
117 -47 l42 -12 0 -78 c0 -156 6 -159 320 -159 314 0 320 3 320 159 l0 78 43
12 c23 7 75 28 116 47 l74 34 64 -60 c57 -53 68 -60 105 -60 40 0 47 5 197
154 l156 155 240 3 c240 3 240 3 297 31 64 32 111 80 142 146 21 45 21 60 24
666 2 456 0 627 -9 648 -20 49 -81 69 -134 45 -56 -25 -55 -16 -55 -663 0
-647 1 -638 -55 -663 -17 -8 -95 -12 -239 -12 l-212 0 -32 33 -32 33 34 75
c19 41 40 93 47 116 l12 43 79 0 c89 0 128 15 146 55 19 40 17 497 -2 534 -20
39 -55 51 -145 51 l-78 0 -12 43 c-7 23 -28 75 -47 116 l-34 74 60 64 c54 57
60 68 60 106 0 40 -4 45 -183 224 -179 179 -184 183 -224 183 -38 0 -49 -6
-106 -60 l-64 -60 -74 34 c-41 19 -93 40 -116 47 l-43 12 0 79 c0 89 -15 128
-55 146 -36 17 -494 17 -530 0 -40 -18 -55 -57 -55 -146 l0 -79 -42 -12 c-24
-7 -76 -28 -117 -47 l-74 -34 -64 60 c-57 54 -68 60 -106 60 -40 0 -45 -4
-224 -183 -179 -179 -183 -184 -183 -224 0 -38 6 -49 60 -106 l60 -64 -34 -74
c-19 -41 -40 -93 -47 -116 l-12 -43 -78 0 c-90 0 -125 -12 -145 -51 -19 -37
-21 -494 -2 -534 18 -40 57 -55 146 -55 l79 0 12 -42 c7 -24 28 -76 47 -117
l34 -75 -32 -33 -32 -33 -993 0 c-1080 0 -1035 -2 -1061 55 -9 20 -12 420 -12
1685 l0 1660 2360 0 2360 0 0 -635 c0 -690 -1 -678 55 -703 52 -24 114 -4 134
45 8 21 11 292 9 1048 l-3 1020 -28 57 c-32 64 -80 111 -146 142 l-46 21
-2320 2 c-2207 2 -2323 2 -2372 -15z m4662 -194 c51 -23 55 -45 55 -328 l0
-260 -2360 0 -2360 0 0 263 c1 280 3 297 51 323 34 19 4574 21 4614 2z m-1403
-2508 c4 -100 14 -111 132 -145 50 -14 137 -51 195 -81 58 -29 115 -54 127
-54 23 0 85 42 124 84 l24 27 83 -83 83 -82 -39 -41 c-50 -53 -71 -85 -71
-110 0 -11 25 -68 54 -126 30 -58 67 -145 81 -195 34 -118 45 -128 145 -132
l80 -4 0 -118 0 -118 -80 -4 c-100 -4 -111 -14 -145 -132 -14 -50 -51 -137
-81 -195 -29 -58 -54 -115 -54 -126 0 -25 21 -57 71 -110 l39 -41 -83 -82 -83
-83 -24 27 c-39 42 -101 84 -124 84 -12 0 -69 -25 -127 -54 -58 -30 -145 -67
-195 -81 -118 -34 -128 -45 -132 -145 l-4 -80 -118 0 -118 0 -4 80 c-4 99 -16
112 -118 140 -41 12 -130 48 -196 80 -67 33 -130 60 -141 60 -23 0 -56 -22
-108 -71 l-41 -39 -82 83 -83 83 27 24 c42 39 84 101 84 124 0 12 -25 69 -54
127 -30 58 -67 145 -81 195 -34 118 -45 128 -145 132 l-80 4 0 118 0 118 80 4
c100 4 111 14 145 132 14 50 51 137 81 195 29 58 54 115 54 127 0 23 -42 85
-84 124 l-27 24 83 83 82 83 41 -39 c52 -49 85 -71 108 -71 11 0 74 27 141 60
66 32 155 68 196 80 102 28 114 41 118 140 l4 80 118 0 118 0 4 -80z"/>
<path d="M981 5006 c-87 -48 -50 -186 49 -186 51 0 100 49 100 99 0 75 -83
124 -149 87z"/>
<path d="M1421 5006 c-87 -48 -50 -186 49 -186 51 0 100 49 100 99 0 75 -83
124 -149 87z"/>
<path d="M1861 5006 c-87 -48 -50 -186 49 -186 51 0 100 49 100 99 0 75 -83
124 -149 87z"/>
<path d="M2661 5006 c-67 -37 -65 -143 4 -174 20 -9 294 -12 1126 -12 932 0
1104 2 1128 14 66 35 66 137 0 172 -40 20 -2221 21 -2258 0z"/>
<path d="M3620 2284 c-238 -46 -436 -219 -512 -449 -33 -101 -33 -289 0 -390
66 -200 227 -361 427 -427 102 -33 289 -33 390 1 203 68 358 223 426 426 34
101 34 288 1 390 -33 99 -90 190 -165 265 -125 125 -253 180 -432 185 -60 2
-121 1 -135 -1z m273 -224 c70 -26 147 -87 200 -156 157 -206 93 -514 -135
-651 -252 -152 -588 -14 -663 272 -27 107 -14 229 36 327 49 97 168 191 280
223 75 21 206 14 282 -15z"/>
<path d="M1444 4186 c-33 -33 -34 -37 -34 -108 l0 -75 -70 -42 -71 -42 -63 36
c-73 41 -115 44 -150 13 -39 -35 -259 -426 -259 -459 0 -47 21 -74 87 -112
l63 -37 -1 -82 -1 -82 -55 -32 c-126 -73 -125 -87 16 -334 60 -106 123 -207
140 -226 43 -46 85 -46 166 1 l60 35 26 -19 c15 -10 46 -28 70 -40 l42 -21 0
-71 c0 -80 16 -119 55 -137 18 -8 103 -12 275 -12 l250 0 31 28 c29 26 32 34
38 110 l6 81 65 40 65 39 61 -34 c78 -43 126 -45 161 -6 14 15 76 117 139 226
121 211 131 242 95 287 -10 13 -44 38 -75 54 l-56 30 0 82 0 82 60 36 c69 42
90 67 90 110 0 44 -236 452 -272 471 -42 22 -75 17 -139 -21 l-59 -34 -70 37
-70 37 0 65 c0 75 -22 128 -60 147 -18 9 -95 13 -273 13 l-249 0 -34 -34z
m416 -230 c0 -78 18 -104 88 -129 28 -10 86 -43 129 -73 89 -62 111 -65 184
-28 28 14 52 24 54 22 19 -19 114 -201 110 -208 -4 -6 -24 -19 -46 -30 -63
-33 -66 -44 -64 -237 1 -190 0 -188 72 -230 24 -13 43 -27 43 -30 0 -14 -113
-203 -122 -203 -5 0 -30 12 -54 26 -57 34 -95 29 -160 -22 -27 -20 -86 -54
-131 -75 -45 -21 -87 -47 -92 -58 -6 -11 -11 -47 -11 -80 l0 -61 -125 0 -125
0 0 59 c0 70 -25 108 -85 130 -39 14 -123 63 -184 106 -44 32 -73 31 -136 -4
l-52 -29 -61 106 -61 107 51 29 c67 39 81 71 69 165 -5 41 -5 101 0 141 5 40
5 80 0 93 -11 27 -46 59 -89 81 l-33 17 19 32 c11 18 38 65 61 105 23 39 45
72 49 72 4 0 25 -11 47 -25 60 -37 100 -33 165 16 30 23 91 58 135 79 92 42
105 61 105 145 l0 55 125 0 125 0 0 -64z"/>
<path d="M1649 3607 c-259 -74 -341 -391 -147 -573 74 -70 125 -89 233 -89
107 0 163 23 235 95 74 73 95 127 95 240 0 89 -2 99 -34 158 -57 106 -155 169
-273 177 -36 3 -83 -1 -109 -8z m134 -201 c52 -22 79 -59 85 -115 17 -178
-242 -208 -273 -31 -12 71 62 160 133 160 12 0 37 -6 55 -14z"/>
<path d="M3234 3910 c-60 -24 -73 -112 -25 -161 l29 -29 147 0 c187 0 225 17
225 100 0 83 -38 100 -217 99 -76 0 -148 -4 -159 -9z"/>
<path d="M3964 3910 c-60 -24 -73 -112 -25 -161 l29 -29 461 0 c494 0 500 1
527 51 27 52 8 115 -41 137 -31 14 -917 16 -951 2z"/>
<path d="M3234 3430 c-60 -24 -73 -112 -25 -161 l29 -29 536 0 c393 0 542 3
561 12 29 13 55 55 55 88 0 33 -26 75 -55 88 -31 14 -1066 16 -1101 2z"/>
<path d="M4638 3411 c-27 -24 -33 -36 -33 -71 0 -35 6 -47 33 -71 31 -28 35
-29 142 -29 121 0 154 10 176 51 27 52 8 115 -41 137 -15 7 -72 12 -135 12
-107 0 -111 -1 -142 -29z"/>
<path d="M5361 2806 c-87 -48 -50 -186 49 -186 51 0 100 49 100 99 0 75 -83
124 -149 87z"/>
<path d="M981 1946 c-87 -48 -50 -186 49 -186 51 0 100 49 100 99 0 75 -83
124 -149 87z"/>
<path d="M1431 1946 c-28 -16 -50 -52 -51 -84 0 -33 28 -78 57 -91 15 -7 120
-11 289 -11 281 0 309 4 334 49 18 35 12 88 -14 118 l-24 28 -284 2 c-222 2
-288 0 -307 -11z"/>
<path d="M981 1466 c-47 -26 -63 -84 -37 -135 26 -49 42 -51 391 -51 l325 0
32 29 c27 24 33 36 33 71 0 35 -6 47 -33 71 l-32 29 -328 0 c-252 -1 -332 -4
-351 -14z"/>
</g>
</svg>
